<mxfile host="65bd71144e" pages="3">
    <diagram id="8B79eMpNRoqDlZByXLjF" name="Standard">
        <mxGraphModel dx="2482" dy="746" grid="1" gridSize="10" guides="1" tooltips="1" connect="1" arrows="1" fold="1" page="1" pageScale="1" pageWidth="827" pageHeight="1169" math="0" shadow="0">
            <root>
                <mxCell id="kQcl340c3XAS7GA1GlbG-0"/>
                <mxCell id="kQcl340c3XAS7GA1GlbG-1" parent="kQcl340c3XAS7GA1GlbG-0"/>
                <mxCell id="sGM1jB0kcSt_eHSB2Us2-2" value="AWS Cloud&amp;nbsp; &amp;nbsp; &amp;nbsp; &amp;nbsp; &amp;nbsp; &amp;nbsp; &amp;nbsp; &amp;nbsp; &amp;nbsp; &amp;nbsp; &amp;nbsp; &amp;nbsp; &amp;nbsp; &amp;nbsp; &amp;nbsp; &amp;nbsp; &amp;nbsp; &amp;nbsp; &amp;nbsp; &amp;nbsp; &amp;nbsp; &amp;nbsp; &amp;nbsp; &amp;nbsp; &amp;nbsp; &amp;nbsp; &amp;nbsp; &amp;nbsp; &amp;nbsp; &amp;nbsp; &amp;nbsp; &amp;nbsp; &amp;nbsp; &amp;nbsp; &amp;nbsp; &lt;font style=&quot;font-size: 16px&quot;&gt;Software Everywhere AWS Ref. Architecture - &lt;b&gt;Standard&lt;/b&gt; (Draft)&lt;/font&gt;" style="points=[[0,0],[0.25,0],[0.5,0],[0.75,0],[1,0],[1,0.25],[1,0.5],[1,0.75],[1,1],[0.75,1],[0.5,1],[0.25,1],[0,1],[0,0.75],[0,0.5],[0,0.25]];outlineConnect=0;gradientColor=none;html=1;whiteSpace=wrap;fontSize=12;fontStyle=0;container=1;pointerEvents=0;collapsible=0;recursiveResize=0;shape=mxgraph.aws4.group;grIcon=mxgraph.aws4.group_aws_cloud_alt;strokeColor=#232F3E;fillColor=none;verticalAlign=top;align=left;spacingLeft=30;fontColor=#232F3E;dashed=0;" parent="kQcl340c3XAS7GA1GlbG-1" vertex="1">
                    <mxGeometry x="-20" y="60" width="950" height="740" as="geometry"/>
                </mxCell>
                <mxCell id="sGM1jB0kcSt_eHSB2Us2-3" value="Region" style="points=[[0,0],[0.25,0],[0.5,0],[0.75,0],[1,0],[1,0.25],[1,0.5],[1,0.75],[1,1],[0.75,1],[0.5,1],[0.25,1],[0,1],[0,0.75],[0,0.5],[0,0.25]];outlineConnect=0;gradientColor=none;html=1;whiteSpace=wrap;fontSize=12;fontStyle=0;container=1;pointerEvents=0;collapsible=0;recursiveResize=0;shape=mxgraph.aws4.group;grIcon=mxgraph.aws4.group_region;strokeColor=#147EBA;fillColor=none;verticalAlign=top;align=left;spacingLeft=30;fontColor=#147EBA;dashed=1;" parent="sGM1jB0kcSt_eHSB2Us2-2" vertex="1">
                    <mxGeometry x="50" y="40" width="858" height="680" as="geometry"/>
                </mxCell>
                <mxCell id="sGM1jB0kcSt_eHSB2Us2-4" value="Common Services" style="fillColor=none;strokeColor=#5A6C86;dashed=1;verticalAlign=top;fontStyle=0;fontColor=#5A6C86;fontSize=10;" parent="sGM1jB0kcSt_eHSB2Us2-3" vertex="1">
                    <mxGeometry x="760" y="348" width="91" height="301" as="geometry"/>
                </mxCell>
                <mxCell id="sGM1jB0kcSt_eHSB2Us2-5" style="edgeStyle=orthogonalEdgeStyle;rounded=0;orthogonalLoop=1;jettySize=auto;html=1;fontSize=10;" parent="sGM1jB0kcSt_eHSB2Us2-3" source="sGM1jB0kcSt_eHSB2Us2-28" target="sGM1jB0kcSt_eHSB2Us2-49" edge="1">
                    <mxGeometry relative="1" as="geometry"/>
                </mxCell>
                <mxCell id="sGM1jB0kcSt_eHSB2Us2-6" value="&lt;b&gt;Standard - VPC.&amp;nbsp; &amp;nbsp;[10.1.0.0/16]&lt;/b&gt;" style="points=[[0,0],[0.25,0],[0.5,0],[0.75,0],[1,0],[1,0.25],[1,0.5],[1,0.75],[1,1],[0.75,1],[0.5,1],[0.25,1],[0,1],[0,0.75],[0,0.5],[0,0.25]];outlineConnect=0;gradientColor=none;html=1;whiteSpace=wrap;fontSize=12;fontStyle=0;container=1;pointerEvents=0;collapsible=0;recursiveResize=0;shape=mxgraph.aws4.group;grIcon=mxgraph.aws4.group_vpc;strokeColor=#248814;fillColor=none;verticalAlign=top;align=left;spacingLeft=30;fontColor=#AAB7B8;dashed=0;" parent="sGM1jB0kcSt_eHSB2Us2-3" vertex="1">
                    <mxGeometry x="73" y="40" width="660" height="590" as="geometry"/>
                </mxCell>
                <mxCell id="sGM1jB0kcSt_eHSB2Us2-7" value="Availability Zone - 1" style="fillColor=none;strokeColor=#147EBA;dashed=1;verticalAlign=top;fontStyle=0;fontColor=#147EBA;" parent="sGM1jB0kcSt_eHSB2Us2-6" vertex="1">
                    <mxGeometry x="56" y="30" width="170" height="540" as="geometry"/>
                </mxCell>
                <mxCell id="sGM1jB0kcSt_eHSB2Us2-8" value="Public subnet&lt;br&gt;[10.1.1.0/24]" style="points=[[0,0],[0.25,0],[0.5,0],[0.75,0],[1,0],[1,0.25],[1,0.5],[1,0.75],[1,1],[0.75,1],[0.5,1],[0.25,1],[0,1],[0,0.75],[0,0.5],[0,0.25]];outlineConnect=0;gradientColor=none;html=1;whiteSpace=wrap;fontSize=12;fontStyle=0;container=1;pointerEvents=0;collapsible=0;recursiveResize=0;shape=mxgraph.aws4.group;grIcon=mxgraph.aws4.group_security_group;grStroke=0;strokeColor=#248814;fillColor=#E9F3E6;verticalAlign=top;align=left;spacingLeft=30;fontColor=#248814;dashed=0;" parent="sGM1jB0kcSt_eHSB2Us2-6" vertex="1">
                    <mxGeometry x="76" y="65" width="130" height="135" as="geometry"/>
                </mxCell>
                <mxCell id="sGM1jB0kcSt_eHSB2Us2-9" value="Availability Zone - 2" style="fillColor=none;strokeColor=#147EBA;dashed=1;verticalAlign=top;fontStyle=0;fontColor=#147EBA;" parent="sGM1jB0kcSt_eHSB2Us2-6" vertex="1">
                    <mxGeometry x="256" y="30" width="170" height="540" as="geometry"/>
                </mxCell>
                <mxCell id="sGM1jB0kcSt_eHSB2Us2-10" value="Availability Zone - 3" style="fillColor=none;strokeColor=#147EBA;dashed=1;verticalAlign=top;fontStyle=0;fontColor=#147EBA;" parent="sGM1jB0kcSt_eHSB2Us2-6" vertex="1">
                    <mxGeometry x="456" y="30" width="170" height="540" as="geometry"/>
                </mxCell>
                <mxCell id="sGM1jB0kcSt_eHSB2Us2-11" value="Public subnet&lt;br&gt;[10.1.2.0/24]" style="points=[[0,0],[0.25,0],[0.5,0],[0.75,0],[1,0],[1,0.25],[1,0.5],[1,0.75],[1,1],[0.75,1],[0.5,1],[0.25,1],[0,1],[0,0.75],[0,0.5],[0,0.25]];outlineConnect=0;gradientColor=none;html=1;whiteSpace=wrap;fontSize=12;fontStyle=0;container=1;pointerEvents=0;collapsible=0;recursiveResize=0;shape=mxgraph.aws4.group;grIcon=mxgraph.aws4.group_security_group;grStroke=0;strokeColor=#248814;fillColor=#E9F3E6;verticalAlign=top;align=left;spacingLeft=30;fontColor=#248814;dashed=0;" parent="sGM1jB0kcSt_eHSB2Us2-6" vertex="1">
                    <mxGeometry x="275" y="65" width="130" height="135" as="geometry"/>
                </mxCell>
                <mxCell id="sGM1jB0kcSt_eHSB2Us2-12" value="Public subnet&lt;br&gt;[10.1.3.0/24]" style="points=[[0,0],[0.25,0],[0.5,0],[0.75,0],[1,0],[1,0.25],[1,0.5],[1,0.75],[1,1],[0.75,1],[0.5,1],[0.25,1],[0,1],[0,0.75],[0,0.5],[0,0.25]];outlineConnect=0;gradientColor=none;html=1;whiteSpace=wrap;fontSize=12;fontStyle=0;container=1;pointerEvents=0;collapsible=0;recursiveResize=0;shape=mxgraph.aws4.group;grIcon=mxgraph.aws4.group_security_group;grStroke=0;strokeColor=#248814;fillColor=#E9F3E6;verticalAlign=top;align=left;spacingLeft=30;fontColor=#248814;dashed=0;" parent="sGM1jB0kcSt_eHSB2Us2-6" vertex="1">
                    <mxGeometry x="476" y="65" width="130" height="135" as="geometry"/>
                </mxCell>
                <mxCell id="sGM1jB0kcSt_eHSB2Us2-13" value="&lt;font style=&quot;font-size: 12px&quot;&gt;Bastion&lt;/font&gt;" style="sketch=0;points=[[0,0,0],[0.25,0,0],[0.5,0,0],[0.75,0,0],[1,0,0],[0,1,0],[0.25,1,0],[0.5,1,0],[0.75,1,0],[1,1,0],[0,0.25,0],[0,0.5,0],[0,0.75,0],[1,0.25,0],[1,0.5,0],[1,0.75,0]];outlineConnect=0;fontColor=#232F3E;gradientColor=#F78E04;gradientDirection=north;fillColor=#D05C17;strokeColor=#ffffff;dashed=0;verticalLabelPosition=bottom;verticalAlign=top;align=center;html=1;fontSize=12;fontStyle=0;aspect=fixed;shape=mxgraph.aws4.resourceIcon;resIcon=mxgraph.aws4.ec2;" parent="sGM1jB0kcSt_eHSB2Us2-12" vertex="1">
                    <mxGeometry x="46" y="59" width="38" height="38" as="geometry"/>
                </mxCell>
                <mxCell id="sGM1jB0kcSt_eHSB2Us2-14" value="&lt;font style=&quot;font-size: 12px&quot;&gt;Bastion&lt;/font&gt;" style="sketch=0;points=[[0,0,0],[0.25,0,0],[0.5,0,0],[0.75,0,0],[1,0,0],[0,1,0],[0.25,1,0],[0.5,1,0],[0.75,1,0],[1,1,0],[0,0.25,0],[0,0.5,0],[0,0.75,0],[1,0.25,0],[1,0.5,0],[1,0.75,0]];outlineConnect=0;fontColor=#232F3E;gradientColor=#F78E04;gradientDirection=north;fillColor=#D05C17;strokeColor=#ffffff;dashed=0;verticalLabelPosition=bottom;verticalAlign=top;align=center;html=1;fontSize=12;fontStyle=0;aspect=fixed;shape=mxgraph.aws4.resourceIcon;resIcon=mxgraph.aws4.ec2;" parent="sGM1jB0kcSt_eHSB2Us2-6" vertex="1">
                    <mxGeometry x="124" y="127" width="38" height="38" as="geometry"/>
                </mxCell>
                <mxCell id="sGM1jB0kcSt_eHSB2Us2-15" value="&lt;font style=&quot;font-size: 12px&quot;&gt;Bastion&lt;/font&gt;" style="sketch=0;points=[[0,0,0],[0.25,0,0],[0.5,0,0],[0.75,0,0],[1,0,0],[0,1,0],[0.25,1,0],[0.5,1,0],[0.75,1,0],[1,1,0],[0,0.25,0],[0,0.5,0],[0,0.75,0],[1,0.25,0],[1,0.5,0],[1,0.75,0]];outlineConnect=0;fontColor=#232F3E;gradientColor=#F78E04;gradientDirection=north;fillColor=#D05C17;strokeColor=#ffffff;dashed=0;verticalLabelPosition=bottom;verticalAlign=top;align=center;html=1;fontSize=12;fontStyle=0;aspect=fixed;shape=mxgraph.aws4.resourceIcon;resIcon=mxgraph.aws4.ec2;" parent="sGM1jB0kcSt_eHSB2Us2-6" vertex="1">
                    <mxGeometry x="322" y="127" width="38" height="38" as="geometry"/>
                </mxCell>
                <mxCell id="sGM1jB0kcSt_eHSB2Us2-20" value="Security group" style="fillColor=none;strokeColor=#DD3522;verticalAlign=top;fontStyle=0;fontColor=#DD3522;" parent="sGM1jB0kcSt_eHSB2Us2-6" vertex="1">
                    <mxGeometry x="85" y="100" width="510" height="84" as="geometry"/>
                </mxCell>
                <mxCell id="QXPKb4qpWzNCw1or6Q1f-0" style="edgeStyle=orthogonalEdgeStyle;rounded=0;orthogonalLoop=1;jettySize=auto;html=1;entryX=0;entryY=0.5;entryDx=0;entryDy=0;fontSize=12;" parent="sGM1jB0kcSt_eHSB2Us2-6" source="sGM1jB0kcSt_eHSB2Us2-21" target="sGM1jB0kcSt_eHSB2Us2-20" edge="1">
                    <mxGeometry relative="1" as="geometry"/>
                </mxCell>
                <mxCell id="sGM1jB0kcSt_eHSB2Us2-21" value="Client VPN" style="sketch=0;points=[[0,0,0],[0.25,0,0],[0.5,0,0],[0.75,0,0],[1,0,0],[0,1,0],[0.25,1,0],[0.5,1,0],[0.75,1,0],[1,1,0],[0,0.25,0],[0,0.5,0],[0,0.75,0],[1,0.25,0],[1,0.5,0],[1,0.75,0]];outlineConnect=0;fontColor=#232F3E;gradientColor=#945DF2;gradientDirection=north;fillColor=#5A30B5;strokeColor=#ffffff;dashed=0;verticalLabelPosition=bottom;verticalAlign=top;align=center;html=1;fontSize=12;fontStyle=0;aspect=fixed;shape=mxgraph.aws4.resourceIcon;resIcon=mxgraph.aws4.client_vpn;" parent="sGM1jB0kcSt_eHSB2Us2-6" vertex="1">
                    <mxGeometry x="-18" y="40" width="34" height="34" as="geometry"/>
                </mxCell>
                <mxCell id="sGM1jB0kcSt_eHSB2Us2-26" value="&lt;font style=&quot;font-size: 10px&quot;&gt;Route&lt;/font&gt;" style="sketch=0;outlineConnect=0;fontColor=#232F3E;gradientColor=none;fillColor=#4D27AA;strokeColor=none;dashed=0;verticalLabelPosition=bottom;verticalAlign=top;align=center;html=1;fontSize=12;fontStyle=0;aspect=fixed;pointerEvents=1;shape=mxgraph.aws4.router;" parent="sGM1jB0kcSt_eHSB2Us2-6" vertex="1">
                    <mxGeometry x="20" y="128" width="28" height="28" as="geometry"/>
                </mxCell>
                <mxCell id="sGM1jB0kcSt_eHSB2Us2-28" value="&lt;font style=&quot;font-size: 10px&quot;&gt;NACL&lt;/font&gt;" style="sketch=0;outlineConnect=0;fontColor=#232F3E;gradientColor=none;fillColor=#4D27AA;strokeColor=none;dashed=0;verticalLabelPosition=bottom;verticalAlign=top;align=center;html=1;fontSize=12;fontStyle=0;aspect=fixed;pointerEvents=1;shape=mxgraph.aws4.network_access_control_list;" parent="sGM1jB0kcSt_eHSB2Us2-3" vertex="1">
                    <mxGeometry x="724" y="207" width="40" height="40" as="geometry"/>
                </mxCell>
                <mxCell id="sGM1jB0kcSt_eHSB2Us2-31" style="edgeStyle=orthogonalEdgeStyle;rounded=0;orthogonalLoop=1;jettySize=auto;html=1;fontSize=10;" parent="sGM1jB0kcSt_eHSB2Us2-3" source="sGM1jB0kcSt_eHSB2Us2-32" target="sGM1jB0kcSt_eHSB2Us2-26" edge="1">
                    <mxGeometry relative="1" as="geometry">
                        <mxPoint x="110" y="210" as="targetPoint"/>
                        <Array as="points">
                            <mxPoint x="111" y="219"/>
                        </Array>
                    </mxGeometry>
                </mxCell>
                <mxCell id="sGM1jB0kcSt_eHSB2Us2-32" value="&lt;font style=&quot;font-size: 10px&quot;&gt;Internet GW&lt;/font&gt;" style="sketch=0;outlineConnect=0;fontColor=#232F3E;gradientColor=none;fillColor=#4D27AA;strokeColor=none;dashed=0;verticalLabelPosition=bottom;verticalAlign=top;align=center;html=1;fontSize=12;fontStyle=0;aspect=fixed;pointerEvents=1;shape=mxgraph.aws4.internet_gateway;" parent="sGM1jB0kcSt_eHSB2Us2-3" vertex="1">
                    <mxGeometry x="53" y="200" width="38" height="38" as="geometry"/>
                </mxCell>
                <mxCell id="sGM1jB0kcSt_eHSB2Us2-33" value="KMS" style="sketch=0;points=[[0,0,0],[0.25,0,0],[0.5,0,0],[0.75,0,0],[1,0,0],[0,1,0],[0.25,1,0],[0.5,1,0],[0.75,1,0],[1,1,0],[0,0.25,0],[0,0.5,0],[0,0.75,0],[1,0.25,0],[1,0.5,0],[1,0.75,0]];outlineConnect=0;fontColor=#232F3E;gradientColor=#F54749;gradientDirection=north;fillColor=#C7131F;strokeColor=#ffffff;dashed=0;verticalLabelPosition=bottom;verticalAlign=top;align=center;html=1;fontSize=12;fontStyle=0;aspect=fixed;shape=mxgraph.aws4.resourceIcon;resIcon=mxgraph.aws4.key_management_service;" parent="sGM1jB0kcSt_eHSB2Us2-3" vertex="1">
                    <mxGeometry x="782" y="379" width="38" height="38" as="geometry"/>
                </mxCell>
                <mxCell id="sGM1jB0kcSt_eHSB2Us2-34" value="S3" style="sketch=0;outlineConnect=0;fontColor=#232F3E;gradientColor=none;fillColor=#3F8624;strokeColor=none;dashed=0;verticalLabelPosition=bottom;verticalAlign=top;align=center;html=1;fontSize=12;fontStyle=0;aspect=fixed;pointerEvents=1;shape=mxgraph.aws4.bucket;" parent="sGM1jB0kcSt_eHSB2Us2-3" vertex="1">
                    <mxGeometry x="788" y="443" width="37.5" height="39" as="geometry"/>
                </mxCell>
                <mxCell id="sGM1jB0kcSt_eHSB2Us2-35" value="&lt;font style=&quot;font-size: 10px&quot;&gt;Cloud Watch&lt;/font&gt;" style="sketch=0;points=[[0,0,0],[0.25,0,0],[0.5,0,0],[0.75,0,0],[1,0,0],[0,1,0],[0.25,1,0],[0.5,1,0],[0.75,1,0],[1,1,0],[0,0.25,0],[0,0.5,0],[0,0.75,0],[1,0.25,0],[1,0.5,0],[1,0.75,0]];points=[[0,0,0],[0.25,0,0],[0.5,0,0],[0.75,0,0],[1,0,0],[0,1,0],[0.25,1,0],[0.5,1,0],[0.75,1,0],[1,1,0],[0,0.25,0],[0,0.5,0],[0,0.75,0],[1,0.25,0],[1,0.5,0],[1,0.75,0]];outlineConnect=0;fontColor=#232F3E;gradientColor=#F34482;gradientDirection=north;fillColor=#BC1356;strokeColor=#ffffff;dashed=0;verticalLabelPosition=bottom;verticalAlign=top;align=center;html=1;fontSize=12;fontStyle=0;aspect=fixed;shape=mxgraph.aws4.resourceIcon;resIcon=mxgraph.aws4.cloudwatch_2;" parent="sGM1jB0kcSt_eHSB2Us2-3" vertex="1">
                    <mxGeometry x="788" y="510" width="38" height="38" as="geometry"/>
                </mxCell>
                <mxCell id="sGM1jB0kcSt_eHSB2Us2-36" value="&lt;font style=&quot;font-size: 10px&quot;&gt;Cloud Trail&lt;/font&gt;" style="sketch=0;points=[[0,0,0],[0.25,0,0],[0.5,0,0],[0.75,0,0],[1,0,0],[0,1,0],[0.25,1,0],[0.5,1,0],[0.75,1,0],[1,1,0],[0,0.25,0],[0,0.5,0],[0,0.75,0],[1,0.25,0],[1,0.5,0],[1,0.75,0]];points=[[0,0,0],[0.25,0,0],[0.5,0,0],[0.75,0,0],[1,0,0],[0,1,0],[0.25,1,0],[0.5,1,0],[0.75,1,0],[1,1,0],[0,0.25,0],[0,0.5,0],[0,0.75,0],[1,0.25,0],[1,0.5,0],[1,0.75,0]];outlineConnect=0;fontColor=#232F3E;gradientColor=#F34482;gradientDirection=north;fillColor=#BC1356;strokeColor=#ffffff;dashed=0;verticalLabelPosition=bottom;verticalAlign=top;align=center;html=1;fontSize=12;fontStyle=0;aspect=fixed;shape=mxgraph.aws4.resourceIcon;resIcon=mxgraph.aws4.cloudtrail;" parent="sGM1jB0kcSt_eHSB2Us2-3" vertex="1">
                    <mxGeometry x="789.5" y="577" width="38" height="38" as="geometry"/>
                </mxCell>
                <mxCell id="sGM1jB0kcSt_eHSB2Us2-37" value="" style="edgeStyle=orthogonalEdgeStyle;html=1;endArrow=open;elbow=vertical;startArrow=open;startFill=0;endFill=0;strokeColor=#545B64;rounded=0;fontSize=10;exitX=0.892;exitY=1.012;exitDx=0;exitDy=0;exitPerimeter=0;" parent="sGM1jB0kcSt_eHSB2Us2-3" source="sGM1jB0kcSt_eHSB2Us2-20" edge="1">
                    <mxGeometry width="100" relative="1" as="geometry">
                        <mxPoint x="407" y="510" as="sourcePoint"/>
                        <mxPoint x="73" y="240" as="targetPoint"/>
                        <Array as="points">
                            <mxPoint x="613" y="260"/>
                            <mxPoint x="73" y="260"/>
                        </Array>
                    </mxGeometry>
                </mxCell>
                <mxCell id="sGM1jB0kcSt_eHSB2Us2-38" value="" style="edgeStyle=orthogonalEdgeStyle;html=1;endArrow=open;elbow=vertical;startArrow=open;startFill=0;endFill=0;strokeColor=#545B64;rounded=0;fontSize=10;entryX=0.117;entryY=1.015;entryDx=0;entryDy=0;entryPerimeter=0;" parent="sGM1jB0kcSt_eHSB2Us2-3" target="sGM1jB0kcSt_eHSB2Us2-20" edge="1">
                    <mxGeometry width="100" relative="1" as="geometry">
                        <mxPoint x="218" y="260" as="sourcePoint"/>
                        <mxPoint x="283" y="570" as="targetPoint"/>
                    </mxGeometry>
                </mxCell>
                <mxCell id="sGM1jB0kcSt_eHSB2Us2-39" value="" style="edgeStyle=orthogonalEdgeStyle;html=1;endArrow=open;elbow=vertical;startArrow=open;startFill=0;endFill=0;strokeColor=#545B64;rounded=0;fontSize=10;entryX=0.514;entryY=1.004;entryDx=0;entryDy=0;entryPerimeter=0;" parent="sGM1jB0kcSt_eHSB2Us2-3" target="sGM1jB0kcSt_eHSB2Us2-20" edge="1">
                    <mxGeometry width="100" relative="1" as="geometry">
                        <mxPoint x="420" y="260" as="sourcePoint"/>
                        <mxPoint x="393" y="522" as="targetPoint"/>
                    </mxGeometry>
                </mxCell>
                <mxCell id="sGM1jB0kcSt_eHSB2Us2-47" value="&lt;font style=&quot;font-size: 10px&quot;&gt;VPN Gateway&lt;/font&gt;" style="sketch=0;outlineConnect=0;fontColor=#232F3E;gradientColor=none;fillColor=#4D27AA;strokeColor=none;dashed=0;verticalLabelPosition=bottom;verticalAlign=top;align=center;html=1;fontSize=12;fontStyle=0;aspect=fixed;pointerEvents=1;shape=mxgraph.aws4.vpc_carrier_gateway;" parent="sGM1jB0kcSt_eHSB2Us2-3" vertex="1">
                    <mxGeometry x="716" y="90" width="38" height="38" as="geometry"/>
                </mxCell>
                <mxCell id="sGM1jB0kcSt_eHSB2Us2-48" style="edgeStyle=orthogonalEdgeStyle;rounded=0;orthogonalLoop=1;jettySize=auto;html=1;fontSize=10;" parent="sGM1jB0kcSt_eHSB2Us2-3" source="sGM1jB0kcSt_eHSB2Us2-49" target="sGM1jB0kcSt_eHSB2Us2-34" edge="1">
                    <mxGeometry relative="1" as="geometry">
                        <Array as="points">
                            <mxPoint x="890" y="283"/>
                            <mxPoint x="890" y="463"/>
                        </Array>
                    </mxGeometry>
                </mxCell>
                <mxCell id="sGM1jB0kcSt_eHSB2Us2-49" value="&lt;font style=&quot;font-size: 10px&quot;&gt;Private Endpoints&lt;/font&gt;" style="sketch=0;outlineConnect=0;fontColor=#232F3E;gradientColor=none;fillColor=#4D27AA;strokeColor=none;dashed=0;verticalLabelPosition=bottom;verticalAlign=top;align=center;html=1;fontSize=12;fontStyle=0;aspect=fixed;pointerEvents=1;shape=mxgraph.aws4.endpoints;" parent="sGM1jB0kcSt_eHSB2Us2-3" vertex="1">
                    <mxGeometry x="790" y="262" width="42" height="42" as="geometry"/>
                </mxCell>
                <mxCell id="sGM1jB0kcSt_eHSB2Us2-50" style="edgeStyle=orthogonalEdgeStyle;rounded=0;orthogonalLoop=1;jettySize=auto;html=1;fontSize=10;" parent="sGM1jB0kcSt_eHSB2Us2-2" source="sGM1jB0kcSt_eHSB2Us2-51" target="sGM1jB0kcSt_eHSB2Us2-47" edge="1">
                    <mxGeometry relative="1" as="geometry">
                        <Array as="points">
                            <mxPoint x="870" y="188"/>
                            <mxPoint x="870" y="150"/>
                        </Array>
                    </mxGeometry>
                </mxCell>
                <mxCell id="sGM1jB0kcSt_eHSB2Us2-51" value="&lt;font style=&quot;font-size: 10px&quot;&gt;Direct Connect&lt;/font&gt;" style="sketch=0;points=[[0,0,0],[0.25,0,0],[0.5,0,0],[0.75,0,0],[1,0,0],[0,1,0],[0.25,1,0],[0.5,1,0],[0.75,1,0],[1,1,0],[0,0.25,0],[0,0.5,0],[0,0.75,0],[1,0.25,0],[1,0.5,0],[1,0.75,0]];outlineConnect=0;fontColor=#232F3E;gradientColor=#945DF2;gradientDirection=north;fillColor=#5A30B5;strokeColor=#ffffff;dashed=0;verticalLabelPosition=bottom;verticalAlign=top;align=center;html=1;fontSize=12;fontStyle=0;aspect=fixed;shape=mxgraph.aws4.resourceIcon;resIcon=mxgraph.aws4.direct_connect;" parent="sGM1jB0kcSt_eHSB2Us2-2" vertex="1">
                    <mxGeometry x="890" y="169" width="38" height="38" as="geometry"/>
                </mxCell>
                <mxCell id="sGM1jB0kcSt_eHSB2Us2-55" style="edgeStyle=orthogonalEdgeStyle;rounded=0;orthogonalLoop=1;jettySize=auto;html=1;fontSize=10;" parent="kQcl340c3XAS7GA1GlbG-1" source="sGM1jB0kcSt_eHSB2Us2-69" target="sGM1jB0kcSt_eHSB2Us2-49" edge="1">
                    <mxGeometry relative="1" as="geometry">
                        <mxPoint x="741" y="580" as="sourcePoint"/>
                        <Array as="points">
                            <mxPoint x="781" y="580"/>
                            <mxPoint x="781" y="471"/>
                        </Array>
                    </mxGeometry>
                </mxCell>
                <mxCell id="sGM1jB0kcSt_eHSB2Us2-69" value="&lt;font style=&quot;font-size: 10px&quot;&gt;NACL&lt;/font&gt;" style="sketch=0;outlineConnect=0;fontColor=#232F3E;gradientColor=none;fillColor=#4D27AA;strokeColor=none;dashed=0;verticalLabelPosition=bottom;verticalAlign=top;align=center;html=1;fontSize=12;fontStyle=0;aspect=fixed;pointerEvents=1;shape=mxgraph.aws4.network_access_control_list;" parent="kQcl340c3XAS7GA1GlbG-1" vertex="1">
                    <mxGeometry x="719" y="516" width="40" height="40" as="geometry"/>
                </mxCell>
                <mxCell id="sGM1jB0kcSt_eHSB2Us2-96" value="Private subnet&lt;br&gt;[10.2.3.0/24]" style="points=[[0,0],[0.25,0],[0.5,0],[0.75,0],[1,0],[1,0.25],[1,0.5],[1,0.75],[1,1],[0.75,1],[0.5,1],[0.25,1],[0,1],[0,0.75],[0,0.5],[0,0.25]];outlineConnect=0;gradientColor=none;html=1;whiteSpace=wrap;fontSize=12;fontStyle=0;container=1;pointerEvents=0;collapsible=0;recursiveResize=0;shape=mxgraph.aws4.group;grIcon=mxgraph.aws4.group_security_group;grStroke=0;strokeColor=#147EBA;fillColor=#E6F2F8;verticalAlign=top;align=left;spacingLeft=30;fontColor=#147EBA;dashed=0;" parent="kQcl340c3XAS7GA1GlbG-1" vertex="1">
                    <mxGeometry x="580" y="393" width="130" height="130" as="geometry"/>
                </mxCell>
                <mxCell id="sGM1jB0kcSt_eHSB2Us2-97" value="Private subnet&lt;br&gt;[10.2.2.0/24]" style="points=[[0,0],[0.25,0],[0.5,0],[0.75,0],[1,0],[1,0.25],[1,0.5],[1,0.75],[1,1],[0.75,1],[0.5,1],[0.25,1],[0,1],[0,0.75],[0,0.5],[0,0.25]];outlineConnect=0;gradientColor=none;html=1;whiteSpace=wrap;fontSize=12;fontStyle=0;container=1;pointerEvents=0;collapsible=0;recursiveResize=0;shape=mxgraph.aws4.group;grIcon=mxgraph.aws4.group_security_group;grStroke=0;strokeColor=#147EBA;fillColor=#E6F2F8;verticalAlign=top;align=left;spacingLeft=30;fontColor=#147EBA;dashed=0;" parent="kQcl340c3XAS7GA1GlbG-1" vertex="1">
                    <mxGeometry x="379" y="393" width="131" height="130" as="geometry"/>
                </mxCell>
                <mxCell id="sGM1jB0kcSt_eHSB2Us2-98" value="Private subnet&lt;br&gt;[10.2.1.0/24]" style="points=[[0,0],[0.25,0],[0.5,0],[0.75,0],[1,0],[1,0.25],[1,0.5],[1,0.75],[1,1],[0.75,1],[0.5,1],[0.25,1],[0,1],[0,0.75],[0,0.5],[0,0.25]];outlineConnect=0;gradientColor=none;html=1;whiteSpace=wrap;fontSize=12;fontStyle=0;container=1;pointerEvents=0;collapsible=0;recursiveResize=0;shape=mxgraph.aws4.group;grIcon=mxgraph.aws4.group_security_group;grStroke=0;strokeColor=#147EBA;fillColor=#E6F2F8;verticalAlign=top;align=left;spacingLeft=30;fontColor=#147EBA;dashed=0;" parent="kQcl340c3XAS7GA1GlbG-1" vertex="1">
                    <mxGeometry x="180" y="393" width="130" height="130" as="geometry"/>
                </mxCell>
                <mxCell id="sGM1jB0kcSt_eHSB2Us2-99" value="" style="edgeStyle=orthogonalEdgeStyle;html=1;endArrow=open;elbow=vertical;startArrow=open;startFill=0;endFill=0;strokeColor=#545B64;rounded=0;fontSize=10;exitX=0.75;exitY=1;exitDx=0;exitDy=0;" parent="kQcl340c3XAS7GA1GlbG-1" edge="1">
                    <mxGeometry width="100" relative="1" as="geometry">
                        <mxPoint x="296.5" y="310" as="sourcePoint"/>
                        <mxPoint x="754.0004545351244" y="306" as="targetPoint"/>
                        <Array as="points">
                            <mxPoint x="297" y="330"/>
                            <mxPoint x="740" y="330"/>
                            <mxPoint x="740" y="306"/>
                        </Array>
                    </mxGeometry>
                </mxCell>
                <mxCell id="sGM1jB0kcSt_eHSB2Us2-100" value="" style="edgeStyle=orthogonalEdgeStyle;html=1;endArrow=open;elbow=vertical;startArrow=open;startFill=0;endFill=0;strokeColor=#545B64;rounded=0;fontSize=10;exitX=0.59;exitY=1.029;exitDx=0;exitDy=0;exitPerimeter=0;" parent="kQcl340c3XAS7GA1GlbG-1" source="sGM1jB0kcSt_eHSB2Us2-20" edge="1">
                    <mxGeometry width="100" relative="1" as="geometry">
                        <mxPoint x="420" y="319" as="sourcePoint"/>
                        <mxPoint x="490" y="330" as="targetPoint"/>
                        <Array as="points">
                            <mxPoint x="489" y="319"/>
                        </Array>
                    </mxGeometry>
                </mxCell>
                <mxCell id="sGM1jB0kcSt_eHSB2Us2-101" value="" style="edgeStyle=orthogonalEdgeStyle;html=1;endArrow=open;elbow=vertical;startArrow=open;startFill=0;endFill=0;strokeColor=#545B64;rounded=0;fontSize=10;exitX=0.59;exitY=1.029;exitDx=0;exitDy=0;exitPerimeter=0;" parent="kQcl340c3XAS7GA1GlbG-1" edge="1">
                    <mxGeometry width="100" relative="1" as="geometry">
                        <mxPoint x="678.9000000000001" y="306.43600000000004" as="sourcePoint"/>
                        <mxPoint x="680" y="330" as="targetPoint"/>
                        <Array as="points">
                            <mxPoint x="679" y="319"/>
                        </Array>
                    </mxGeometry>
                </mxCell>
                <mxCell id="sGM1jB0kcSt_eHSB2Us2-102" value="" style="edgeStyle=orthogonalEdgeStyle;html=1;endArrow=block;elbow=vertical;startArrow=block;startFill=1;endFill=1;strokeColor=#545B64;rounded=0;fontSize=10;exitX=0.488;exitY=0.5;exitDx=0;exitDy=0;exitPerimeter=0;" parent="kQcl340c3XAS7GA1GlbG-1" edge="1">
                    <mxGeometry width="100" relative="1" as="geometry">
                        <mxPoint x="219.96000000000004" y="516" as="sourcePoint"/>
                        <mxPoint x="720.0004545351239" y="536" as="targetPoint"/>
                        <Array as="points">
                            <mxPoint x="220" y="536"/>
                        </Array>
                    </mxGeometry>
                </mxCell>
                <mxCell id="sGM1jB0kcSt_eHSB2Us2-103" value="" style="edgeStyle=orthogonalEdgeStyle;html=1;endArrow=block;elbow=vertical;startArrow=block;startFill=1;endFill=1;strokeColor=#545B64;rounded=0;fontSize=10;entryX=0.489;entryY=0.038;entryDx=0;entryDy=0;entryPerimeter=0;exitX=0.481;exitY=1.041;exitDx=0;exitDy=0;exitPerimeter=0;" parent="kQcl340c3XAS7GA1GlbG-1" source="sGM1jB0kcSt_eHSB2Us2-107" target="sGM1jB0kcSt_eHSB2Us2-61" edge="1">
                    <mxGeometry width="100" relative="1" as="geometry">
                        <mxPoint x="331" y="548" as="sourcePoint"/>
                        <mxPoint x="431" y="548" as="targetPoint"/>
                    </mxGeometry>
                </mxCell>
                <mxCell id="sGM1jB0kcSt_eHSB2Us2-104" value="" style="edgeStyle=orthogonalEdgeStyle;html=1;endArrow=block;elbow=vertical;startArrow=block;startFill=1;endFill=1;strokeColor=#545B64;rounded=0;fontSize=10;entryX=0.86;entryY=1.029;entryDx=0;entryDy=0;entryPerimeter=0;" parent="kQcl340c3XAS7GA1GlbG-1" source="sGM1jB0kcSt_eHSB2Us2-60" target="sGM1jB0kcSt_eHSB2Us2-107" edge="1">
                    <mxGeometry width="100" relative="1" as="geometry">
                        <mxPoint x="565" y="531" as="sourcePoint"/>
                        <mxPoint x="665" y="531" as="targetPoint"/>
                    </mxGeometry>
                </mxCell>
                <mxCell id="sGM1jB0kcSt_eHSB2Us2-105" value="" style="edgeStyle=orthogonalEdgeStyle;html=1;endArrow=openThin;elbow=vertical;startArrow=none;endFill=0;strokeColor=#545B64;rounded=0;fontSize=10;entryX=0.665;entryY=0.614;entryDx=0;entryDy=0;entryPerimeter=0;" parent="kQcl340c3XAS7GA1GlbG-1" edge="1">
                    <mxGeometry width="100" relative="1" as="geometry">
                        <mxPoint x="268" y="537" as="sourcePoint"/>
                        <mxPoint x="268.0499999999997" y="556.8999999999999" as="targetPoint"/>
                    </mxGeometry>
                </mxCell>
                <mxCell id="sGM1jB0kcSt_eHSB2Us2-107" value="Security group" style="fillColor=none;strokeColor=#DD3522;verticalAlign=top;fontStyle=0;fontColor=#DD3522;" parent="kQcl340c3XAS7GA1GlbG-1" vertex="1">
                    <mxGeometry x="190" y="431" width="510" height="84" as="geometry"/>
                </mxCell>
                <mxCell id="sGM1jB0kcSt_eHSB2Us2-108" value="&lt;font style=&quot;font-size: 10px&quot;&gt;ROSA&lt;/font&gt;" style="sketch=0;points=[[0,0,0],[0.25,0,0],[0.5,0,0],[0.75,0,0],[1,0,0],[0,1,0],[0.25,1,0],[0.5,1,0],[0.75,1,0],[1,1,0],[0,0.25,0],[0,0.5,0],[0,0.75,0],[1,0.25,0],[1,0.5,0],[1,0.75,0]];outlineConnect=0;fontColor=#232F3E;gradientColor=#F78E04;gradientDirection=north;fillColor=#D05C17;strokeColor=#ffffff;dashed=0;verticalLabelPosition=bottom;verticalAlign=top;align=center;html=1;fontSize=12;fontStyle=0;aspect=fixed;shape=mxgraph.aws4.resourceIcon;resIcon=mxgraph.aws4.red_hat_openshift;" parent="kQcl340c3XAS7GA1GlbG-1" vertex="1">
                    <mxGeometry x="418" y="454" width="38" height="38" as="geometry"/>
                </mxCell>
                <mxCell id="sGM1jB0kcSt_eHSB2Us2-109" value="&lt;font style=&quot;font-size: 10px&quot;&gt;ROSA&lt;/font&gt;" style="sketch=0;points=[[0,0,0],[0.25,0,0],[0.5,0,0],[0.75,0,0],[1,0,0],[0,1,0],[0.25,1,0],[0.5,1,0],[0.75,1,0],[1,1,0],[0,0.25,0],[0,0.5,0],[0,0.75,0],[1,0.25,0],[1,0.5,0],[1,0.75,0]];outlineConnect=0;fontColor=#232F3E;gradientColor=#F78E04;gradientDirection=north;fillColor=#D05C17;strokeColor=#ffffff;dashed=0;verticalLabelPosition=bottom;verticalAlign=top;align=center;html=1;fontSize=12;fontStyle=0;aspect=fixed;shape=mxgraph.aws4.resourceIcon;resIcon=mxgraph.aws4.red_hat_openshift;" parent="kQcl340c3XAS7GA1GlbG-1" vertex="1">
                    <mxGeometry x="226" y="449" width="38" height="38" as="geometry"/>
                </mxCell>
                <mxCell id="sGM1jB0kcSt_eHSB2Us2-110" value="&lt;font style=&quot;font-size: 10px&quot;&gt;ROSA&lt;/font&gt;" style="sketch=0;points=[[0,0,0],[0.25,0,0],[0.5,0,0],[0.75,0,0],[1,0,0],[0,1,0],[0.25,1,0],[0.5,1,0],[0.75,1,0],[1,1,0],[0,0.25,0],[0,0.5,0],[0,0.75,0],[1,0.25,0],[1,0.5,0],[1,0.75,0]];outlineConnect=0;fontColor=#232F3E;gradientColor=#F78E04;gradientDirection=north;fillColor=#D05C17;strokeColor=#ffffff;dashed=0;verticalLabelPosition=bottom;verticalAlign=top;align=center;html=1;fontSize=12;fontStyle=1;aspect=fixed;shape=mxgraph.aws4.resourceIcon;resIcon=mxgraph.aws4.red_hat_openshift;" parent="kQcl340c3XAS7GA1GlbG-1" vertex="1">
                    <mxGeometry x="626" y="454" width="38" height="38" as="geometry"/>
                </mxCell>
                <mxCell id="sGM1jB0kcSt_eHSB2Us2-114" style="edgeStyle=orthogonalEdgeStyle;rounded=0;orthogonalLoop=1;jettySize=auto;html=1;exitX=1;exitY=0.5;exitDx=0;exitDy=0;fontSize=10;entryX=0;entryY=0.5;entryDx=0;entryDy=0;entryPerimeter=0;" parent="kQcl340c3XAS7GA1GlbG-1" source="sGM1jB0kcSt_eHSB2Us2-115" target="sGM1jB0kcSt_eHSB2Us2-21" edge="1">
                    <mxGeometry relative="1" as="geometry">
                        <mxPoint x="-100" y="100" as="targetPoint"/>
                    </mxGeometry>
                </mxCell>
                <mxCell id="sGM1jB0kcSt_eHSB2Us2-115" value="&lt;font style=&quot;font-size: 10px&quot;&gt;Employees connecting Remotely&lt;/font&gt;" style="points=[[0,0],[0.25,0],[0.5,0],[0.75,0],[1,0],[1,0.25],[1,0.5],[1,0.75],[1,1],[0.75,1],[0.5,1],[0.25,1],[0,1],[0,0.75],[0,0.5],[0,0.25]];outlineConnect=0;gradientColor=none;html=1;whiteSpace=wrap;fontSize=12;fontStyle=0;container=1;pointerEvents=0;collapsible=0;recursiveResize=0;shape=mxgraph.aws4.group;grIcon=mxgraph.aws4.group_on_premise;strokeColor=#5A6C86;fillColor=none;verticalAlign=top;align=left;spacingLeft=30;fontColor=#5A6C86;dashed=0;" parent="kQcl340c3XAS7GA1GlbG-1" vertex="1">
                    <mxGeometry x="-210" y="64" width="130" height="180" as="geometry"/>
                </mxCell>
                <mxCell id="sGM1jB0kcSt_eHSB2Us2-116" value="" style="sketch=0;outlineConnect=0;fontColor=#232F3E;gradientColor=none;fillColor=#232F3D;strokeColor=none;dashed=0;verticalLabelPosition=bottom;verticalAlign=top;align=center;html=1;fontSize=12;fontStyle=0;aspect=fixed;pointerEvents=1;shape=mxgraph.aws4.users;" parent="sGM1jB0kcSt_eHSB2Us2-115" vertex="1">
                    <mxGeometry x="20" y="66" width="44" height="44" as="geometry"/>
                </mxCell>
                <mxCell id="sGM1jB0kcSt_eHSB2Us2-117" value="" style="sketch=0;outlineConnect=0;fontColor=#232F3E;gradientColor=none;fillColor=#232F3D;strokeColor=none;dashed=0;verticalLabelPosition=bottom;verticalAlign=top;align=center;html=1;fontSize=12;fontStyle=0;aspect=fixed;pointerEvents=1;shape=mxgraph.aws4.client;" parent="sGM1jB0kcSt_eHSB2Us2-115" vertex="1">
                    <mxGeometry x="20" y="126" width="40" height="38.97" as="geometry"/>
                </mxCell>
                <mxCell id="sGM1jB0kcSt_eHSB2Us2-118" value="&lt;font style=&quot;font-size: 10px&quot;&gt;VPN Client&lt;/font&gt;" style="sketch=0;outlineConnect=0;fontColor=#232F3E;gradientColor=none;fillColor=#4D27AA;strokeColor=none;dashed=0;verticalLabelPosition=bottom;verticalAlign=top;align=center;html=1;fontSize=12;fontStyle=0;aspect=fixed;pointerEvents=1;shape=mxgraph.aws4.vpn_connection;" parent="sGM1jB0kcSt_eHSB2Us2-115" vertex="1">
                    <mxGeometry x="50" y="96" width="30" height="33.43" as="geometry"/>
                </mxCell>
                <mxCell id="sGM1jB0kcSt_eHSB2Us2-119" value="Internet" style="sketch=0;outlineConnect=0;fontColor=#232F3E;gradientColor=none;fillColor=#232F3D;strokeColor=none;dashed=0;verticalLabelPosition=bottom;verticalAlign=top;align=center;html=1;fontSize=12;fontStyle=0;aspect=fixed;pointerEvents=1;shape=mxgraph.aws4.internet_alt1;" parent="kQcl340c3XAS7GA1GlbG-1" vertex="1">
                    <mxGeometry x="-110" y="124.31" width="58" height="35.69" as="geometry"/>
                </mxCell>
                <mxCell id="sGM1jB0kcSt_eHSB2Us2-120" style="edgeStyle=orthogonalEdgeStyle;rounded=0;orthogonalLoop=1;jettySize=auto;html=1;exitX=0.5;exitY=1;exitDx=0;exitDy=0;fontSize=10;" parent="kQcl340c3XAS7GA1GlbG-1" source="sGM1jB0kcSt_eHSB2Us2-115" target="sGM1jB0kcSt_eHSB2Us2-115" edge="1">
                    <mxGeometry relative="1" as="geometry"/>
                </mxCell>
                <mxCell id="sGM1jB0kcSt_eHSB2Us2-121" value="Corporate data center" style="points=[[0,0],[0.25,0],[0.5,0],[0.75,0],[1,0],[1,0.25],[1,0.5],[1,0.75],[1,1],[0.75,1],[0.5,1],[0.25,1],[0,1],[0,0.75],[0,0.5],[0,0.25]];outlineConnect=0;gradientColor=none;html=1;whiteSpace=wrap;fontSize=12;fontStyle=0;container=1;pointerEvents=0;collapsible=0;recursiveResize=0;shape=mxgraph.aws4.group;grIcon=mxgraph.aws4.group_corporate_data_center;strokeColor=#5A6C86;fillColor=none;verticalAlign=top;align=left;spacingLeft=30;fontColor=#5A6C86;dashed=0;" parent="kQcl340c3XAS7GA1GlbG-1" vertex="1">
                    <mxGeometry x="1050" y="100" width="130" height="220" as="geometry"/>
                </mxCell>
                <mxCell id="sGM1jB0kcSt_eHSB2Us2-122" value="&lt;font style=&quot;font-size: 10px&quot;&gt;Users&lt;/font&gt;" style="sketch=0;outlineConnect=0;fontColor=#232F3E;gradientColor=none;fillColor=#232F3D;strokeColor=none;dashed=0;verticalLabelPosition=bottom;verticalAlign=top;align=center;html=1;fontSize=12;fontStyle=0;aspect=fixed;pointerEvents=1;shape=mxgraph.aws4.users;" parent="sGM1jB0kcSt_eHSB2Us2-121" vertex="1">
                    <mxGeometry x="41" y="60" width="48" height="48" as="geometry"/>
                </mxCell>
                <mxCell id="sGM1jB0kcSt_eHSB2Us2-126" style="edgeStyle=orthogonalEdgeStyle;rounded=0;orthogonalLoop=1;jettySize=auto;html=1;entryX=1;entryY=0.5;entryDx=0;entryDy=0;entryPerimeter=0;fontSize=10;" parent="kQcl340c3XAS7GA1GlbG-1" source="sGM1jB0kcSt_eHSB2Us2-127" target="sGM1jB0kcSt_eHSB2Us2-51" edge="1">
                    <mxGeometry relative="1" as="geometry"/>
                </mxCell>
                <mxCell id="sGM1jB0kcSt_eHSB2Us2-127" value="&lt;font style=&quot;font-size: 10px&quot;&gt;Firewall&lt;/font&gt;" style="sketch=0;outlineConnect=0;fontColor=#232F3E;gradientColor=none;fillColor=#FF3333;strokeColor=none;dashed=0;verticalLabelPosition=bottom;verticalAlign=top;align=center;html=1;fontSize=12;fontStyle=0;aspect=fixed;pointerEvents=1;shape=mxgraph.aws4.generic_firewall;" parent="kQcl340c3XAS7GA1GlbG-1" vertex="1">
                    <mxGeometry x="1030" y="189.69" width="48" height="40.62" as="geometry"/>
                </mxCell>
                <mxCell id="sGM1jB0kcSt_eHSB2Us2-60" value="Private subnet&lt;br&gt;[10.2.6.0/24]" style="points=[[0,0],[0.25,0],[0.5,0],[0.75,0],[1,0],[1,0.25],[1,0.5],[1,0.75],[1,1],[0.75,1],[0.5,1],[0.25,1],[0,1],[0,0.75],[0,0.5],[0,0.25]];outlineConnect=0;gradientColor=none;html=1;whiteSpace=wrap;fontSize=12;fontStyle=0;container=1;pointerEvents=0;collapsible=0;recursiveResize=0;shape=mxgraph.aws4.group;grIcon=mxgraph.aws4.group_security_group;grStroke=0;strokeColor=#147EBA;fillColor=#E6F2F8;verticalAlign=top;align=left;spacingLeft=30;fontColor=#147EBA;dashed=0;" parent="kQcl340c3XAS7GA1GlbG-1" vertex="1">
                    <mxGeometry x="575" y="556" width="130" height="130" as="geometry"/>
                </mxCell>
                <mxCell id="sGM1jB0kcSt_eHSB2Us2-61" value="Private subnet&lt;br&gt;[10.2.5.0/24]" style="points=[[0,0],[0.25,0],[0.5,0],[0.75,0],[1,0],[1,0.25],[1,0.5],[1,0.75],[1,1],[0.75,1],[0.5,1],[0.25,1],[0,1],[0,0.75],[0,0.5],[0,0.25]];outlineConnect=0;gradientColor=none;html=1;whiteSpace=wrap;fontSize=12;fontStyle=0;container=1;pointerEvents=0;collapsible=0;recursiveResize=0;shape=mxgraph.aws4.group;grIcon=mxgraph.aws4.group_security_group;grStroke=0;strokeColor=#147EBA;fillColor=#E6F2F8;verticalAlign=top;align=left;spacingLeft=30;fontColor=#147EBA;dashed=0;" parent="kQcl340c3XAS7GA1GlbG-1" vertex="1">
                    <mxGeometry x="374" y="556" width="131" height="130" as="geometry"/>
                </mxCell>
                <mxCell id="sGM1jB0kcSt_eHSB2Us2-62" value="Private subnet&lt;br&gt;[10.2.4.0/24]" style="points=[[0,0],[0.25,0],[0.5,0],[0.75,0],[1,0],[1,0.25],[1,0.5],[1,0.75],[1,1],[0.75,1],[0.5,1],[0.25,1],[0,1],[0,0.75],[0,0.5],[0,0.25]];outlineConnect=0;gradientColor=none;html=1;whiteSpace=wrap;fontSize=12;fontStyle=0;container=1;pointerEvents=0;collapsible=0;recursiveResize=0;shape=mxgraph.aws4.group;grIcon=mxgraph.aws4.group_security_group;grStroke=0;strokeColor=#147EBA;fillColor=#E6F2F8;verticalAlign=top;align=left;spacingLeft=30;fontColor=#147EBA;dashed=0;" parent="kQcl340c3XAS7GA1GlbG-1" vertex="1">
                    <mxGeometry x="175" y="556" width="130" height="130" as="geometry"/>
                </mxCell>
                <mxCell id="sGM1jB0kcSt_eHSB2Us2-63" value="&lt;font style=&quot;font-size: 12px&quot;&gt;Instance&lt;/font&gt;" style="sketch=0;points=[[0,0,0],[0.25,0,0],[0.5,0,0],[0.75,0,0],[1,0,0],[0,1,0],[0.25,1,0],[0.5,1,0],[0.75,1,0],[1,1,0],[0,0.25,0],[0,0.5,0],[0,0.75,0],[1,0.25,0],[1,0.5,0],[1,0.75,0]];outlineConnect=0;fontColor=#232F3E;gradientColor=#F78E04;gradientDirection=north;fillColor=#D05C17;strokeColor=#ffffff;dashed=0;verticalLabelPosition=bottom;verticalAlign=top;align=center;html=1;fontSize=12;fontStyle=0;aspect=fixed;shape=mxgraph.aws4.resourceIcon;resIcon=mxgraph.aws4.ec2;" parent="sGM1jB0kcSt_eHSB2Us2-62" vertex="1">
                    <mxGeometry x="46" y="55" width="38" height="38" as="geometry"/>
                </mxCell>
                <mxCell id="sGM1jB0kcSt_eHSB2Us2-64" value="&lt;font style=&quot;font-size: 12px&quot;&gt;Instance&lt;/font&gt;" style="sketch=0;points=[[0,0,0],[0.25,0,0],[0.5,0,0],[0.75,0,0],[1,0,0],[0,1,0],[0.25,1,0],[0.5,1,0],[0.75,1,0],[1,1,0],[0,0.25,0],[0,0.5,0],[0,0.75,0],[1,0.25,0],[1,0.5,0],[1,0.75,0]];outlineConnect=0;fontColor=#232F3E;gradientColor=#F78E04;gradientDirection=north;fillColor=#D05C17;strokeColor=#ffffff;dashed=0;verticalLabelPosition=bottom;verticalAlign=top;align=center;html=1;fontSize=12;fontStyle=0;aspect=fixed;shape=mxgraph.aws4.resourceIcon;resIcon=mxgraph.aws4.ec2;" parent="kQcl340c3XAS7GA1GlbG-1" vertex="1">
                    <mxGeometry x="420" y="617" width="38" height="38" as="geometry"/>
                </mxCell>
                <mxCell id="sGM1jB0kcSt_eHSB2Us2-65" value="&lt;font style=&quot;font-size: 12px&quot;&gt;Instance&lt;/font&gt;" style="sketch=0;points=[[0,0,0],[0.25,0,0],[0.5,0,0],[0.75,0,0],[1,0,0],[0,1,0],[0.25,1,0],[0.5,1,0],[0.75,1,0],[1,1,0],[0,0.25,0],[0,0.5,0],[0,0.75,0],[1,0.25,0],[1,0.5,0],[1,0.75,0]];outlineConnect=0;fontColor=#232F3E;gradientColor=#F78E04;gradientDirection=north;fillColor=#D05C17;strokeColor=#ffffff;dashed=0;verticalLabelPosition=bottom;verticalAlign=top;align=center;html=1;fontSize=12;fontStyle=0;aspect=fixed;shape=mxgraph.aws4.resourceIcon;resIcon=mxgraph.aws4.ec2;" parent="kQcl340c3XAS7GA1GlbG-1" vertex="1">
                    <mxGeometry x="621" y="614" width="38" height="38" as="geometry"/>
                </mxCell>
                <mxCell id="sGM1jB0kcSt_eHSB2Us2-66" value="Security group" style="fillColor=none;strokeColor=#DD3522;verticalAlign=top;fontStyle=0;fontColor=#DD3522;" parent="kQcl340c3XAS7GA1GlbG-1" vertex="1">
                    <mxGeometry x="185" y="594" width="510" height="84" as="geometry"/>
                </mxCell>
            </root>
        </mxGraphModel>
    </diagram>
    <diagram id="dsWSMTuizlZhcuUrQpVF" name="QuickStart">
        <mxGraphModel dx="2482" dy="746" grid="1" gridSize="10" guides="1" tooltips="1" connect="1" arrows="1" fold="1" page="1" pageScale="1" pageWidth="827" pageHeight="1169" math="0" shadow="0">
            <root>
                <mxCell id="Fif3yxATM3irNitWLYS3-0"/>
                <mxCell id="Fif3yxATM3irNitWLYS3-1" parent="Fif3yxATM3irNitWLYS3-0"/>
                <mxCell id="j3MszP0B5jbXyX3KIunA-2" value="AWS Cloud&amp;nbsp; &amp;nbsp; &amp;nbsp; &amp;nbsp; &amp;nbsp; &amp;nbsp; &amp;nbsp; &amp;nbsp; &amp;nbsp; &amp;nbsp; &amp;nbsp; &amp;nbsp; &amp;nbsp; &amp;nbsp; &amp;nbsp; &amp;nbsp; &amp;nbsp; &amp;nbsp; &amp;nbsp; &amp;nbsp; &amp;nbsp; &amp;nbsp; &amp;nbsp; &amp;nbsp; &amp;nbsp; &amp;nbsp; &amp;nbsp; &amp;nbsp; &amp;nbsp; &amp;nbsp; &amp;nbsp; &amp;nbsp; &amp;nbsp; &amp;nbsp; &amp;nbsp; &lt;font style=&quot;font-size: 16px&quot;&gt;Software Everywhere AWS Ref. Architecture - &lt;b&gt;Quick Start&lt;/b&gt; (Draft)&lt;/font&gt;" style="points=[[0,0],[0.25,0],[0.5,0],[0.75,0],[1,0],[1,0.25],[1,0.5],[1,0.75],[1,1],[0.75,1],[0.5,1],[0.25,1],[0,1],[0,0.75],[0,0.5],[0,0.25]];outlineConnect=0;gradientColor=none;html=1;whiteSpace=wrap;fontSize=12;fontStyle=0;container=1;pointerEvents=0;collapsible=0;recursiveResize=0;shape=mxgraph.aws4.group;grIcon=mxgraph.aws4.group_aws_cloud_alt;strokeColor=#232F3E;fillColor=none;verticalAlign=top;align=left;spacingLeft=30;fontColor=#232F3E;dashed=0;" parent="Fif3yxATM3irNitWLYS3-1" vertex="1">
                    <mxGeometry x="10" y="63" width="990" height="567" as="geometry"/>
                </mxCell>
                <mxCell id="j3MszP0B5jbXyX3KIunA-3" value="Region" style="points=[[0,0],[0.25,0],[0.5,0],[0.75,0],[1,0],[1,0.25],[1,0.5],[1,0.75],[1,1],[0.75,1],[0.5,1],[0.25,1],[0,1],[0,0.75],[0,0.5],[0,0.25]];outlineConnect=0;gradientColor=none;html=1;whiteSpace=wrap;fontSize=12;fontStyle=0;container=1;pointerEvents=0;collapsible=0;recursiveResize=0;shape=mxgraph.aws4.group;grIcon=mxgraph.aws4.group_region;strokeColor=#147EBA;fillColor=none;verticalAlign=top;align=left;spacingLeft=30;fontColor=#147EBA;dashed=1;" parent="j3MszP0B5jbXyX3KIunA-2" vertex="1">
                    <mxGeometry x="70" y="40" width="900" height="510" as="geometry"/>
                </mxCell>
                <mxCell id="j3MszP0B5jbXyX3KIunA-4" value="Common Services" style="fillColor=none;strokeColor=#5A6C86;dashed=1;verticalAlign=top;fontStyle=0;fontColor=#5A6C86;fontSize=10;" parent="j3MszP0B5jbXyX3KIunA-3" vertex="1">
                    <mxGeometry x="780" y="37" width="100" height="303" as="geometry"/>
                </mxCell>
                <mxCell id="j3MszP0B5jbXyX3KIunA-6" value="&lt;b&gt;Quick Start - VPC.&amp;nbsp; &amp;nbsp;[10.1.0.0/16]&lt;/b&gt;" style="points=[[0,0],[0.25,0],[0.5,0],[0.75,0],[1,0],[1,0.25],[1,0.5],[1,0.75],[1,1],[0.75,1],[0.5,1],[0.25,1],[0,1],[0,0.75],[0,0.5],[0,0.25]];outlineConnect=0;gradientColor=none;html=1;whiteSpace=wrap;fontSize=12;fontStyle=0;container=1;pointerEvents=0;collapsible=0;recursiveResize=0;shape=mxgraph.aws4.group;grIcon=mxgraph.aws4.group_vpc;strokeColor=#248814;fillColor=none;verticalAlign=top;align=left;spacingLeft=30;fontColor=#AAB7B8;dashed=0;" parent="j3MszP0B5jbXyX3KIunA-3" vertex="1">
                    <mxGeometry x="73" y="40" width="660" height="470" as="geometry"/>
                </mxCell>
                <mxCell id="j3MszP0B5jbXyX3KIunA-10" value="Availability Zone - 3" style="fillColor=none;strokeColor=#147EBA;dashed=1;verticalAlign=top;fontStyle=0;fontColor=#147EBA;" parent="j3MszP0B5jbXyX3KIunA-6" vertex="1">
                    <mxGeometry x="456" y="30" width="170" height="420" as="geometry"/>
                </mxCell>
                <mxCell id="j3MszP0B5jbXyX3KIunA-7" value="Availability Zone - 1" style="fillColor=none;strokeColor=#147EBA;dashed=1;verticalAlign=top;fontStyle=0;fontColor=#147EBA;" parent="j3MszP0B5jbXyX3KIunA-6" vertex="1">
                    <mxGeometry x="56" y="30" width="170" height="420" as="geometry"/>
                </mxCell>
                <mxCell id="j3MszP0B5jbXyX3KIunA-9" value="Availability Zone - 2" style="fillColor=none;strokeColor=#147EBA;dashed=1;verticalAlign=top;fontStyle=0;fontColor=#147EBA;" parent="j3MszP0B5jbXyX3KIunA-6" vertex="1">
                    <mxGeometry x="256" y="30" width="170" height="420" as="geometry"/>
                </mxCell>
                <mxCell id="j3MszP0B5jbXyX3KIunA-8" value="Private subnet&lt;br&gt;[10.0.1.0/24]" style="points=[[0,0],[0.25,0],[0.5,0],[0.75,0],[1,0],[1,0.25],[1,0.5],[1,0.75],[1,1],[0.75,1],[0.5,1],[0.25,1],[0,1],[0,0.75],[0,0.5],[0,0.25]];outlineConnect=0;gradientColor=none;html=1;whiteSpace=wrap;fontSize=12;fontStyle=0;container=1;pointerEvents=0;collapsible=0;recursiveResize=0;shape=mxgraph.aws4.group;grIcon=mxgraph.aws4.group_security_group;grStroke=0;strokeColor=#248814;fillColor=#E9F3E6;verticalAlign=top;align=left;spacingLeft=30;fontColor=#248814;dashed=0;" parent="j3MszP0B5jbXyX3KIunA-6" vertex="1">
                    <mxGeometry x="76" y="68" width="130" height="135" as="geometry"/>
                </mxCell>
                <mxCell id="j3MszP0B5jbXyX3KIunA-11" value="Private Subnet&lt;br&gt;[10.0.2.0/24]" style="points=[[0,0],[0.25,0],[0.5,0],[0.75,0],[1,0],[1,0.25],[1,0.5],[1,0.75],[1,1],[0.75,1],[0.5,1],[0.25,1],[0,1],[0,0.75],[0,0.5],[0,0.25]];outlineConnect=0;gradientColor=none;html=1;whiteSpace=wrap;fontSize=12;fontStyle=0;container=1;pointerEvents=0;collapsible=0;recursiveResize=0;shape=mxgraph.aws4.group;grIcon=mxgraph.aws4.group_security_group;grStroke=0;strokeColor=#248814;fillColor=#E9F3E6;verticalAlign=top;align=left;spacingLeft=30;fontColor=#248814;dashed=0;" parent="j3MszP0B5jbXyX3KIunA-6" vertex="1">
                    <mxGeometry x="275" y="68" width="130" height="135" as="geometry"/>
                </mxCell>
                <mxCell id="mFJg6HX1-F2Ol27pz1yy-1" value="&lt;font style=&quot;font-size: 10px&quot;&gt;ROSA&lt;/font&gt;" style="sketch=0;points=[[0,0,0],[0.25,0,0],[0.5,0,0],[0.75,0,0],[1,0,0],[0,1,0],[0.25,1,0],[0.5,1,0],[0.75,1,0],[1,1,0],[0,0.25,0],[0,0.5,0],[0,0.75,0],[1,0.25,0],[1,0.5,0],[1,0.75,0]];outlineConnect=0;fontColor=#232F3E;gradientColor=#F78E04;gradientDirection=north;fillColor=#D05C17;strokeColor=#ffffff;dashed=0;verticalLabelPosition=bottom;verticalAlign=top;align=center;html=1;fontSize=12;fontStyle=0;aspect=fixed;shape=mxgraph.aws4.resourceIcon;resIcon=mxgraph.aws4.red_hat_openshift;" parent="j3MszP0B5jbXyX3KIunA-11" vertex="1">
                    <mxGeometry x="47" y="63" width="38" height="38" as="geometry"/>
                </mxCell>
                <mxCell id="j3MszP0B5jbXyX3KIunA-12" value="Private subnet&lt;br&gt;[10.0.3.0/24]" style="points=[[0,0],[0.25,0],[0.5,0],[0.75,0],[1,0],[1,0.25],[1,0.5],[1,0.75],[1,1],[0.75,1],[0.5,1],[0.25,1],[0,1],[0,0.75],[0,0.5],[0,0.25]];outlineConnect=0;gradientColor=none;html=1;whiteSpace=wrap;fontSize=12;fontStyle=0;container=1;pointerEvents=0;collapsible=0;recursiveResize=0;shape=mxgraph.aws4.group;grIcon=mxgraph.aws4.group_security_group;grStroke=0;strokeColor=#248814;fillColor=#E9F3E6;verticalAlign=top;align=left;spacingLeft=30;fontColor=#248814;dashed=0;" parent="j3MszP0B5jbXyX3KIunA-6" vertex="1">
                    <mxGeometry x="476" y="68" width="130" height="135" as="geometry"/>
                </mxCell>
                <mxCell id="mFJg6HX1-F2Ol27pz1yy-2" value="&lt;font style=&quot;font-size: 10px&quot;&gt;ROSA&lt;/font&gt;" style="sketch=0;points=[[0,0,0],[0.25,0,0],[0.5,0,0],[0.75,0,0],[1,0,0],[0,1,0],[0.25,1,0],[0.5,1,0],[0.75,1,0],[1,1,0],[0,0.25,0],[0,0.5,0],[0,0.75,0],[1,0.25,0],[1,0.5,0],[1,0.75,0]];outlineConnect=0;fontColor=#232F3E;gradientColor=#F78E04;gradientDirection=north;fillColor=#D05C17;strokeColor=#ffffff;dashed=0;verticalLabelPosition=bottom;verticalAlign=top;align=center;html=1;fontSize=12;fontStyle=0;aspect=fixed;shape=mxgraph.aws4.resourceIcon;resIcon=mxgraph.aws4.red_hat_openshift;" parent="j3MszP0B5jbXyX3KIunA-12" vertex="1">
                    <mxGeometry x="46" y="65" width="38" height="38" as="geometry"/>
                </mxCell>
                <mxCell id="8b27tP1gXYn-TesuhIRz-1" value="Public subnet&lt;br&gt;[10.1.1.0/24]" style="points=[[0,0],[0.25,0],[0.5,0],[0.75,0],[1,0],[1,0.25],[1,0.5],[1,0.75],[1,1],[0.75,1],[0.5,1],[0.25,1],[0,1],[0,0.75],[0,0.5],[0,0.25]];outlineConnect=0;gradientColor=none;html=1;whiteSpace=wrap;fontSize=12;fontStyle=0;container=1;pointerEvents=0;collapsible=0;recursiveResize=0;shape=mxgraph.aws4.group;grIcon=mxgraph.aws4.group_security_group;grStroke=0;strokeColor=#248814;fillColor=#E9F3E6;verticalAlign=top;align=left;spacingLeft=30;fontColor=#248814;dashed=0;" vertex="1" parent="j3MszP0B5jbXyX3KIunA-6">
                    <mxGeometry x="76" y="307" width="130" height="135" as="geometry"/>
                </mxCell>
                <mxCell id="8b27tP1gXYn-TesuhIRz-6" value="" style="sketch=0;outlineConnect=0;fontColor=#232F3E;gradientColor=none;fillColor=#4D27AA;strokeColor=none;dashed=0;verticalLabelPosition=bottom;verticalAlign=top;align=center;html=1;fontSize=12;fontStyle=0;aspect=fixed;pointerEvents=1;shape=mxgraph.aws4.nat_gateway;" vertex="1" parent="8b27tP1gXYn-TesuhIRz-1">
                    <mxGeometry x="40.5" y="60" width="49" height="49" as="geometry"/>
                </mxCell>
                <mxCell id="8b27tP1gXYn-TesuhIRz-15" value="" style="outlineConnect=0;dashed=0;verticalLabelPosition=bottom;verticalAlign=top;align=center;html=1;shape=mxgraph.aws3.elastic_ip;fillColor=#F58534;gradientColor=none;aspect=fixed;" vertex="1" parent="8b27tP1gXYn-TesuhIRz-1">
                    <mxGeometry x="43.25" y="122.05999999999995" width="43.5" height="11.94" as="geometry"/>
                </mxCell>
                <mxCell id="8b27tP1gXYn-TesuhIRz-2" value="Public subnet&lt;br&gt;[10.1.2.0/24]" style="points=[[0,0],[0.25,0],[0.5,0],[0.75,0],[1,0],[1,0.25],[1,0.5],[1,0.75],[1,1],[0.75,1],[0.5,1],[0.25,1],[0,1],[0,0.75],[0,0.5],[0,0.25]];outlineConnect=0;gradientColor=none;html=1;whiteSpace=wrap;fontSize=12;fontStyle=0;container=1;pointerEvents=0;collapsible=0;recursiveResize=0;shape=mxgraph.aws4.group;grIcon=mxgraph.aws4.group_security_group;grStroke=0;strokeColor=#248814;fillColor=#E9F3E6;verticalAlign=top;align=left;spacingLeft=30;fontColor=#248814;dashed=0;" vertex="1" parent="j3MszP0B5jbXyX3KIunA-6">
                    <mxGeometry x="276" y="307" width="130" height="135" as="geometry"/>
                </mxCell>
                <mxCell id="8b27tP1gXYn-TesuhIRz-7" value="" style="sketch=0;outlineConnect=0;fontColor=#232F3E;gradientColor=none;fillColor=#4D27AA;strokeColor=none;dashed=0;verticalLabelPosition=bottom;verticalAlign=top;align=center;html=1;fontSize=12;fontStyle=0;aspect=fixed;pointerEvents=1;shape=mxgraph.aws4.nat_gateway;" vertex="1" parent="8b27tP1gXYn-TesuhIRz-2">
                    <mxGeometry x="39.5" y="60" width="49" height="49" as="geometry"/>
                </mxCell>
                <mxCell id="8b27tP1gXYn-TesuhIRz-17" value="" style="outlineConnect=0;dashed=0;verticalLabelPosition=bottom;verticalAlign=top;align=center;html=1;shape=mxgraph.aws3.elastic_ip;fillColor=#F58534;gradientColor=none;aspect=fixed;" vertex="1" parent="8b27tP1gXYn-TesuhIRz-2">
                    <mxGeometry x="46" y="122.05999999999995" width="43.5" height="11.94" as="geometry"/>
                </mxCell>
                <mxCell id="8b27tP1gXYn-TesuhIRz-4" value="Public subnet&lt;br&gt;[10.1.3.0/24]" style="points=[[0,0],[0.25,0],[0.5,0],[0.75,0],[1,0],[1,0.25],[1,0.5],[1,0.75],[1,1],[0.75,1],[0.5,1],[0.25,1],[0,1],[0,0.75],[0,0.5],[0,0.25]];outlineConnect=0;gradientColor=none;html=1;whiteSpace=wrap;fontSize=12;fontStyle=0;container=1;pointerEvents=0;collapsible=0;recursiveResize=0;shape=mxgraph.aws4.group;grIcon=mxgraph.aws4.group_security_group;grStroke=0;strokeColor=#248814;fillColor=#E9F3E6;verticalAlign=top;align=left;spacingLeft=30;fontColor=#248814;dashed=0;" vertex="1" parent="j3MszP0B5jbXyX3KIunA-6">
                    <mxGeometry x="476" y="306" width="130" height="135" as="geometry"/>
                </mxCell>
                <mxCell id="8b27tP1gXYn-TesuhIRz-18" value="" style="outlineConnect=0;dashed=0;verticalLabelPosition=bottom;verticalAlign=top;align=center;html=1;shape=mxgraph.aws3.elastic_ip;fillColor=#F58534;gradientColor=none;aspect=fixed;" vertex="1" parent="8b27tP1gXYn-TesuhIRz-4">
                    <mxGeometry x="46" y="123.05999999999995" width="43.5" height="11.94" as="geometry"/>
                </mxCell>
                <mxCell id="8b27tP1gXYn-TesuhIRz-8" value="" style="sketch=0;outlineConnect=0;fontColor=#232F3E;gradientColor=none;fillColor=#4D27AA;strokeColor=none;dashed=0;verticalLabelPosition=bottom;verticalAlign=top;align=center;html=1;fontSize=12;fontStyle=0;aspect=fixed;pointerEvents=1;shape=mxgraph.aws4.nat_gateway;" vertex="1" parent="j3MszP0B5jbXyX3KIunA-6">
                    <mxGeometry x="517" y="367" width="49" height="49" as="geometry"/>
                </mxCell>
                <mxCell id="8b27tP1gXYn-TesuhIRz-23" style="edgeStyle=none;rounded=0;html=1;entryX=0.5;entryY=1;entryDx=0;entryDy=0;entryPerimeter=0;endArrow=none;endFill=0;exitX=1;exitY=0.5;exitDx=0;exitDy=0;exitPerimeter=0;" edge="1" parent="j3MszP0B5jbXyX3KIunA-6" source="8b27tP1gXYn-TesuhIRz-9" target="mFJg6HX1-F2Ol27pz1yy-0">
                    <mxGeometry relative="1" as="geometry">
                        <Array as="points">
                            <mxPoint x="136" y="277"/>
                        </Array>
                    </mxGeometry>
                </mxCell>
                <mxCell id="8b27tP1gXYn-TesuhIRz-9" value="" style="outlineConnect=0;dashed=0;verticalLabelPosition=bottom;verticalAlign=top;align=center;html=1;shape=mxgraph.aws3.classic_load_balancer;fillColor=#F58534;gradientColor=none;aspect=fixed;" vertex="1" parent="j3MszP0B5jbXyX3KIunA-6">
                    <mxGeometry x="41" y="254" width="45" height="46.96" as="geometry"/>
                </mxCell>
                <mxCell id="8b27tP1gXYn-TesuhIRz-10" value="Classic&lt;br&gt;Load&lt;br&gt;Balancer" style="text;html=1;strokeColor=none;fillColor=none;align=center;verticalAlign=middle;whiteSpace=wrap;rounded=0;" vertex="1" parent="j3MszP0B5jbXyX3KIunA-6">
                    <mxGeometry x="-4" y="203" width="60" height="30" as="geometry"/>
                </mxCell>
                <mxCell id="8b27tP1gXYn-TesuhIRz-19" value="" style="outlineConnect=0;dashed=0;verticalLabelPosition=bottom;verticalAlign=top;align=center;html=1;shape=mxgraph.aws3.application_load_balancer;fillColor=#F58534;gradientColor=none;aspect=fixed;" vertex="1" parent="j3MszP0B5jbXyX3KIunA-6">
                    <mxGeometry x="316.5" y="214.44" width="49" height="51.13" as="geometry"/>
                </mxCell>
                <mxCell id="mFJg6HX1-F2Ol27pz1yy-0" value="&lt;font style=&quot;font-size: 10px&quot;&gt;ROSA&lt;/font&gt;" style="sketch=0;points=[[0,0,0],[0.25,0,0],[0.5,0,0],[0.75,0,0],[1,0,0],[0,1,0],[0.25,1,0],[0.5,1,0],[0.75,1,0],[1,1,0],[0,0.25,0],[0,0.5,0],[0,0.75,0],[1,0.25,0],[1,0.5,0],[1,0.75,0]];outlineConnect=0;fontColor=#232F3E;gradientColor=#F78E04;gradientDirection=north;fillColor=#D05C17;strokeColor=#ffffff;dashed=0;verticalLabelPosition=bottom;verticalAlign=top;align=center;html=1;fontSize=12;fontStyle=0;aspect=fixed;shape=mxgraph.aws4.resourceIcon;resIcon=mxgraph.aws4.red_hat_openshift;" parent="j3MszP0B5jbXyX3KIunA-6" vertex="1">
                    <mxGeometry x="117" y="131" width="38" height="38" as="geometry"/>
                </mxCell>
                <mxCell id="8b27tP1gXYn-TesuhIRz-20" style="edgeStyle=none;rounded=0;html=1;exitX=0;exitY=0.5;exitDx=0;exitDy=0;exitPerimeter=0;entryX=1;entryY=0.5;entryDx=0;entryDy=0;entryPerimeter=0;endArrow=none;endFill=0;" edge="1" parent="j3MszP0B5jbXyX3KIunA-6" source="8b27tP1gXYn-TesuhIRz-19" target="mFJg6HX1-F2Ol27pz1yy-0">
                    <mxGeometry relative="1" as="geometry">
                        <Array as="points">
                            <mxPoint x="187" y="240"/>
                            <mxPoint x="187" y="150"/>
                        </Array>
                    </mxGeometry>
                </mxCell>
                <mxCell id="j3MszP0B5jbXyX3KIunA-20" value="Security group" style="fillColor=none;strokeColor=#DD3522;verticalAlign=top;fontStyle=0;fontColor=#DD3522;" parent="j3MszP0B5jbXyX3KIunA-6" vertex="1">
                    <mxGeometry x="86" y="108" width="510" height="84" as="geometry"/>
                </mxCell>
                <mxCell id="8b27tP1gXYn-TesuhIRz-21" style="edgeStyle=none;rounded=0;html=1;exitX=0.5;exitY=0;exitDx=0;exitDy=0;exitPerimeter=0;endArrow=none;endFill=0;" edge="1" parent="j3MszP0B5jbXyX3KIunA-6" source="8b27tP1gXYn-TesuhIRz-19" target="j3MszP0B5jbXyX3KIunA-20">
                    <mxGeometry relative="1" as="geometry"/>
                </mxCell>
                <mxCell id="8b27tP1gXYn-TesuhIRz-22" style="edgeStyle=none;rounded=0;html=1;entryX=0.867;entryY=0.548;entryDx=0;entryDy=0;entryPerimeter=0;endArrow=none;endFill=0;" edge="1" parent="j3MszP0B5jbXyX3KIunA-6" source="8b27tP1gXYn-TesuhIRz-19" target="j3MszP0B5jbXyX3KIunA-20">
                    <mxGeometry relative="1" as="geometry">
                        <Array as="points">
                            <mxPoint x="487" y="237"/>
                            <mxPoint x="487" y="154"/>
                        </Array>
                    </mxGeometry>
                </mxCell>
                <mxCell id="8b27tP1gXYn-TesuhIRz-11" style="edgeStyle=none;html=1;entryX=0;entryY=0.5;entryDx=0;entryDy=0;entryPerimeter=0;rounded=0;endArrow=none;endFill=0;" edge="1" parent="j3MszP0B5jbXyX3KIunA-3" source="j3MszP0B5jbXyX3KIunA-32" target="8b27tP1gXYn-TesuhIRz-9">
                    <mxGeometry relative="1" as="geometry">
                        <Array as="points">
                            <mxPoint x="100" y="376"/>
                            <mxPoint x="100" y="317"/>
                        </Array>
                    </mxGeometry>
                </mxCell>
                <mxCell id="j3MszP0B5jbXyX3KIunA-32" value="&lt;font style=&quot;font-size: 10px&quot;&gt;Internet GW&lt;/font&gt;" style="sketch=0;outlineConnect=0;fontColor=#232F3E;gradientColor=none;fillColor=#4D27AA;strokeColor=none;dashed=0;verticalLabelPosition=bottom;verticalAlign=top;align=center;html=1;fontSize=12;fontStyle=0;aspect=fixed;pointerEvents=1;shape=mxgraph.aws4.internet_gateway;" parent="j3MszP0B5jbXyX3KIunA-3" vertex="1">
                    <mxGeometry x="53" y="357" width="38" height="38" as="geometry"/>
                </mxCell>
                <mxCell id="j3MszP0B5jbXyX3KIunA-35" value="&lt;font style=&quot;font-size: 10px&quot;&gt;Cloud Watch&lt;/font&gt;" style="sketch=0;points=[[0,0,0],[0.25,0,0],[0.5,0,0],[0.75,0,0],[1,0,0],[0,1,0],[0.25,1,0],[0.5,1,0],[0.75,1,0],[1,1,0],[0,0.25,0],[0,0.5,0],[0,0.75,0],[1,0.25,0],[1,0.5,0],[1,0.75,0]];points=[[0,0,0],[0.25,0,0],[0.5,0,0],[0.75,0,0],[1,0,0],[0,1,0],[0.25,1,0],[0.5,1,0],[0.75,1,0],[1,1,0],[0,0.25,0],[0,0.5,0],[0,0.75,0],[1,0.25,0],[1,0.5,0],[1,0.75,0]];outlineConnect=0;fontColor=#232F3E;gradientColor=#F34482;gradientDirection=north;fillColor=#BC1356;strokeColor=#ffffff;dashed=0;verticalLabelPosition=bottom;verticalAlign=top;align=center;html=1;fontSize=12;fontStyle=0;aspect=fixed;shape=mxgraph.aws4.resourceIcon;resIcon=mxgraph.aws4.cloudwatch_2;" parent="j3MszP0B5jbXyX3KIunA-3" vertex="1">
                    <mxGeometry x="811" y="137" width="38" height="38" as="geometry"/>
                </mxCell>
                <mxCell id="j3MszP0B5jbXyX3KIunA-36" value="&lt;font style=&quot;font-size: 10px&quot;&gt;Cloud Trail&lt;/font&gt;" style="sketch=0;points=[[0,0,0],[0.25,0,0],[0.5,0,0],[0.75,0,0],[1,0,0],[0,1,0],[0.25,1,0],[0.5,1,0],[0.75,1,0],[1,1,0],[0,0.25,0],[0,0.5,0],[0,0.75,0],[1,0.25,0],[1,0.5,0],[1,0.75,0]];points=[[0,0,0],[0.25,0,0],[0.5,0,0],[0.75,0,0],[1,0,0],[0,1,0],[0.25,1,0],[0.5,1,0],[0.75,1,0],[1,1,0],[0,0.25,0],[0,0.5,0],[0,0.75,0],[1,0.25,0],[1,0.5,0],[1,0.75,0]];outlineConnect=0;fontColor=#232F3E;gradientColor=#F34482;gradientDirection=north;fillColor=#BC1356;strokeColor=#ffffff;dashed=0;verticalLabelPosition=bottom;verticalAlign=top;align=center;html=1;fontSize=12;fontStyle=0;aspect=fixed;shape=mxgraph.aws4.resourceIcon;resIcon=mxgraph.aws4.cloudtrail;" parent="j3MszP0B5jbXyX3KIunA-3" vertex="1">
                    <mxGeometry x="811" y="203" width="38" height="38" as="geometry"/>
                </mxCell>
                <mxCell id="j3MszP0B5jbXyX3KIunA-33" value="KMS" style="sketch=0;points=[[0,0,0],[0.25,0,0],[0.5,0,0],[0.75,0,0],[1,0,0],[0,1,0],[0.25,1,0],[0.5,1,0],[0.75,1,0],[1,1,0],[0,0.25,0],[0,0.5,0],[0,0.75,0],[1,0.25,0],[1,0.5,0],[1,0.75,0]];outlineConnect=0;fontColor=#232F3E;gradientColor=#F54749;gradientDirection=north;fillColor=#C7131F;strokeColor=#ffffff;dashed=0;verticalLabelPosition=bottom;verticalAlign=top;align=center;html=1;fontSize=12;fontStyle=0;aspect=fixed;shape=mxgraph.aws4.resourceIcon;resIcon=mxgraph.aws4.key_management_service;" parent="j3MszP0B5jbXyX3KIunA-3" vertex="1">
                    <mxGeometry x="811" y="67" width="38" height="38" as="geometry"/>
                </mxCell>
                <mxCell id="ks5m24elIKZIAmwTlCk_-0" value="S3" style="sketch=0;outlineConnect=0;fontColor=#232F3E;gradientColor=none;fillColor=#3F8624;strokeColor=none;dashed=0;verticalLabelPosition=bottom;verticalAlign=top;align=center;html=1;fontSize=12;fontStyle=0;aspect=fixed;pointerEvents=1;shape=mxgraph.aws4.bucket;" parent="j3MszP0B5jbXyX3KIunA-3" vertex="1">
                    <mxGeometry x="811" y="277" width="37.5" height="39" as="geometry"/>
                </mxCell>
                <mxCell id="8b27tP1gXYn-TesuhIRz-12" value="" style="endArrow=none;html=1;rounded=0;" edge="1" parent="j3MszP0B5jbXyX3KIunA-3" source="j3MszP0B5jbXyX3KIunA-32" target="8b27tP1gXYn-TesuhIRz-6">
                    <mxGeometry width="50" height="50" relative="1" as="geometry">
                        <mxPoint x="450" y="287" as="sourcePoint"/>
                        <mxPoint x="500" y="237" as="targetPoint"/>
                        <Array as="points">
                            <mxPoint x="120" y="387"/>
                            <mxPoint x="120" y="467"/>
                            <mxPoint x="214" y="467"/>
                        </Array>
                    </mxGeometry>
                </mxCell>
                <mxCell id="g8MNJu0ggrNHYcFQNNHy-8" style="edgeStyle=orthogonalEdgeStyle;rounded=0;orthogonalLoop=1;jettySize=auto;html=1;entryX=0;entryY=0.5;entryDx=0;entryDy=0;fontSize=12;exitX=1;exitY=0.5;exitDx=0;exitDy=0;" parent="j3MszP0B5jbXyX3KIunA-3" source="j3MszP0B5jbXyX3KIunA-20" target="j3MszP0B5jbXyX3KIunA-4" edge="1">
                    <mxGeometry relative="1" as="geometry"/>
                </mxCell>
                <mxCell id="j3MszP0B5jbXyX3KIunA-114" style="edgeStyle=orthogonalEdgeStyle;rounded=0;orthogonalLoop=1;jettySize=auto;html=1;exitX=1;exitY=0.5;exitDx=0;exitDy=0;fontSize=10;" parent="Fif3yxATM3irNitWLYS3-1" source="j3MszP0B5jbXyX3KIunA-115" target="j3MszP0B5jbXyX3KIunA-32" edge="1">
                    <mxGeometry relative="1" as="geometry">
                        <mxPoint x="85" y="197" as="targetPoint"/>
                        <Array as="points">
                            <mxPoint x="70" y="154"/>
                            <mxPoint x="70" y="479"/>
                        </Array>
                    </mxGeometry>
                </mxCell>
                <mxCell id="j3MszP0B5jbXyX3KIunA-115" value="&lt;font style=&quot;font-size: 10px&quot;&gt;Employees connecting Remotely&lt;/font&gt;" style="points=[[0,0],[0.25,0],[0.5,0],[0.75,0],[1,0],[1,0.25],[1,0.5],[1,0.75],[1,1],[0.75,1],[0.5,1],[0.25,1],[0,1],[0,0.75],[0,0.5],[0,0.25]];outlineConnect=0;gradientColor=none;html=1;whiteSpace=wrap;fontSize=12;fontStyle=0;container=1;pointerEvents=0;collapsible=0;recursiveResize=0;shape=mxgraph.aws4.group;grIcon=mxgraph.aws4.group_on_premise;strokeColor=#5A6C86;fillColor=none;verticalAlign=top;align=left;spacingLeft=30;fontColor=#5A6C86;dashed=0;" parent="Fif3yxATM3irNitWLYS3-1" vertex="1">
                    <mxGeometry x="-180" y="64" width="130" height="180" as="geometry"/>
                </mxCell>
                <mxCell id="j3MszP0B5jbXyX3KIunA-116" value="" style="sketch=0;outlineConnect=0;fontColor=#232F3E;gradientColor=none;fillColor=#232F3D;strokeColor=none;dashed=0;verticalLabelPosition=bottom;verticalAlign=top;align=center;html=1;fontSize=12;fontStyle=0;aspect=fixed;pointerEvents=1;shape=mxgraph.aws4.users;" parent="j3MszP0B5jbXyX3KIunA-115" vertex="1">
                    <mxGeometry x="20" y="66" width="44" height="44" as="geometry"/>
                </mxCell>
                <mxCell id="j3MszP0B5jbXyX3KIunA-117" value="" style="sketch=0;outlineConnect=0;fontColor=#232F3E;gradientColor=none;fillColor=#232F3D;strokeColor=none;dashed=0;verticalLabelPosition=bottom;verticalAlign=top;align=center;html=1;fontSize=12;fontStyle=0;aspect=fixed;pointerEvents=1;shape=mxgraph.aws4.client;" parent="j3MszP0B5jbXyX3KIunA-115" vertex="1">
                    <mxGeometry x="60" y="116" width="40" height="38.97" as="geometry"/>
                </mxCell>
                <mxCell id="j3MszP0B5jbXyX3KIunA-119" value="Internet" style="sketch=0;outlineConnect=0;fontColor=#232F3E;gradientColor=none;fillColor=#232F3D;strokeColor=none;dashed=0;verticalLabelPosition=bottom;verticalAlign=top;align=center;html=1;fontSize=12;fontStyle=0;aspect=fixed;pointerEvents=1;shape=mxgraph.aws4.internet_alt1;" parent="Fif3yxATM3irNitWLYS3-1" vertex="1">
                    <mxGeometry x="-80" y="124.31" width="58" height="35.69" as="geometry"/>
                </mxCell>
                <mxCell id="j3MszP0B5jbXyX3KIunA-120" style="edgeStyle=orthogonalEdgeStyle;rounded=0;orthogonalLoop=1;jettySize=auto;html=1;exitX=0.5;exitY=1;exitDx=0;exitDy=0;fontSize=10;" parent="Fif3yxATM3irNitWLYS3-1" source="j3MszP0B5jbXyX3KIunA-115" target="j3MszP0B5jbXyX3KIunA-115" edge="1">
                    <mxGeometry relative="1" as="geometry"/>
                </mxCell>
                <mxCell id="g8MNJu0ggrNHYcFQNNHy-0" style="edgeStyle=orthogonalEdgeStyle;rounded=0;orthogonalLoop=1;jettySize=auto;html=1;exitX=0.5;exitY=1;exitDx=0;exitDy=0;fontSize=12;" parent="Fif3yxATM3irNitWLYS3-1" source="j3MszP0B5jbXyX3KIunA-115" target="j3MszP0B5jbXyX3KIunA-115" edge="1">
                    <mxGeometry relative="1" as="geometry"/>
                </mxCell>
                <mxCell id="8b27tP1gXYn-TesuhIRz-13" value="" style="endArrow=none;html=1;rounded=0;entryX=0.5;entryY=1.061;entryDx=0;entryDy=0;entryPerimeter=0;" edge="1" parent="Fif3yxATM3irNitWLYS3-1" target="8b27tP1gXYn-TesuhIRz-7">
                    <mxGeometry width="50" height="50" relative="1" as="geometry">
                        <mxPoint x="290" y="570" as="sourcePoint"/>
                        <mxPoint x="580" y="340" as="targetPoint"/>
                        <Array as="points">
                            <mxPoint x="493" y="570"/>
                        </Array>
                    </mxGeometry>
                </mxCell>
                <mxCell id="8b27tP1gXYn-TesuhIRz-14" value="" style="endArrow=none;html=1;rounded=0;" edge="1" parent="Fif3yxATM3irNitWLYS3-1" target="8b27tP1gXYn-TesuhIRz-8">
                    <mxGeometry width="50" height="50" relative="1" as="geometry">
                        <mxPoint x="490" y="570" as="sourcePoint"/>
                        <mxPoint x="503" y="571.989" as="targetPoint"/>
                        <Array as="points">
                            <mxPoint x="695" y="570"/>
                        </Array>
                    </mxGeometry>
                </mxCell>
                <mxCell id="xALr2GgT7OyIAOcn8jNw-0" value="" style="endArrow=none;html=1;rounded=0;entryX=0.904;entryY=0.702;entryDx=0;entryDy=0;entryPerimeter=0;" edge="1" parent="Fif3yxATM3irNitWLYS3-1" target="j3MszP0B5jbXyX3KIunA-20">
                    <mxGeometry width="50" height="50" relative="1" as="geometry">
                        <mxPoint x="290" y="420" as="sourcePoint"/>
                        <mxPoint x="630" y="680" as="targetPoint"/>
                        <Array as="points">
                            <mxPoint x="700" y="420"/>
                        </Array>
                    </mxGeometry>
                </mxCell>
                <mxCell id="xALr2GgT7OyIAOcn8jNw-1" value="" style="endArrow=none;html=1;rounded=0;exitX=1;exitY=0.5;exitDx=0;exitDy=0;exitPerimeter=0;jumpStyle=arc;" edge="1" parent="Fif3yxATM3irNitWLYS3-1" source="mFJg6HX1-F2Ol27pz1yy-1">
                    <mxGeometry width="50" height="50" relative="1" as="geometry">
                        <mxPoint x="1200" y="500" as="sourcePoint"/>
                        <mxPoint x="530" y="420" as="targetPoint"/>
                        <Array as="points">
                            <mxPoint x="530" y="293"/>
                        </Array>
                    </mxGeometry>
                </mxCell>
            </root>
        </mxGraphModel>
    </diagram>
    <diagram id="IHV6yRfsFbCoUGvUqC-B" name="Production">
        <mxGraphModel dx="2482" dy="746" grid="1" gridSize="10" guides="1" tooltips="1" connect="1" arrows="1" fold="1" page="1" pageScale="1" pageWidth="827" pageHeight="1169" math="0" shadow="0">
            <root>
                <mxCell id="0"/>
                <mxCell id="1" parent="0"/>
                <mxCell id="RJmhnvJt7O8vMK1CdAbt-230" style="edgeStyle=orthogonalEdgeStyle;rounded=0;orthogonalLoop=1;jettySize=auto;html=1;exitX=0.5;exitY=1;exitDx=0;exitDy=0;fontSize=10;" parent="1" source="RJmhnvJt7O8vMK1CdAbt-225" target="RJmhnvJt7O8vMK1CdAbt-223" edge="1">
                    <mxGeometry relative="1" as="geometry"/>
                </mxCell>
                <mxCell id="RJmhnvJt7O8vMK1CdAbt-225" value="Users" style="fillColor=#EFF0F3;strokeColor=none;dashed=0;verticalAlign=top;fontStyle=0;fontColor=#232F3D;fontSize=10;" parent="1" vertex="1">
                    <mxGeometry x="-250" y="740" width="130" height="130" as="geometry"/>
                </mxCell>
                <mxCell id="RJmhnvJt7O8vMK1CdAbt-4" value="AWS Cloud&amp;nbsp; &amp;nbsp; &amp;nbsp; &amp;nbsp; &amp;nbsp; &amp;nbsp; &amp;nbsp; &amp;nbsp; &amp;nbsp; &amp;nbsp; &amp;nbsp; &amp;nbsp; &amp;nbsp; &amp;nbsp; &amp;nbsp; &amp;nbsp; &amp;nbsp; &amp;nbsp; &amp;nbsp; &amp;nbsp; &amp;nbsp; &amp;nbsp; &amp;nbsp; &amp;nbsp; &amp;nbsp; &amp;nbsp; &amp;nbsp; &amp;nbsp; &amp;nbsp; &amp;nbsp; &amp;nbsp; &amp;nbsp; &amp;nbsp; &amp;nbsp; &amp;nbsp; &lt;font style=&quot;font-size: 16px&quot;&gt;Software Everywhere AWS Ref. Architecture - &lt;b&gt;Production&lt;/b&gt; (Draft)&lt;/font&gt;" style="points=[[0,0],[0.25,0],[0.5,0],[0.75,0],[1,0],[1,0.25],[1,0.5],[1,0.75],[1,1],[0.75,1],[0.5,1],[0.25,1],[0,1],[0,0.75],[0,0.5],[0,0.25]];outlineConnect=0;gradientColor=none;html=1;whiteSpace=wrap;fontSize=12;fontStyle=0;container=1;pointerEvents=0;collapsible=0;recursiveResize=0;shape=mxgraph.aws4.group;grIcon=mxgraph.aws4.group_aws_cloud_alt;strokeColor=#232F3E;fillColor=none;verticalAlign=top;align=left;spacingLeft=30;fontColor=#232F3E;dashed=0;" parent="1" vertex="1">
                    <mxGeometry x="-20" y="60" width="950" height="1460" as="geometry"/>
                </mxCell>
                <mxCell id="RJmhnvJt7O8vMK1CdAbt-5" value="Region" style="points=[[0,0],[0.25,0],[0.5,0],[0.75,0],[1,0],[1,0.25],[1,0.5],[1,0.75],[1,1],[0.75,1],[0.5,1],[0.25,1],[0,1],[0,0.75],[0,0.5],[0,0.25]];outlineConnect=0;gradientColor=none;html=1;whiteSpace=wrap;fontSize=12;fontStyle=0;container=1;pointerEvents=0;collapsible=0;recursiveResize=0;shape=mxgraph.aws4.group;grIcon=mxgraph.aws4.group_region;strokeColor=#147EBA;fillColor=none;verticalAlign=top;align=left;spacingLeft=30;fontColor=#147EBA;dashed=1;" parent="RJmhnvJt7O8vMK1CdAbt-4" vertex="1">
                    <mxGeometry x="50" y="40" width="858" height="1380" as="geometry"/>
                </mxCell>
                <mxCell id="RJmhnvJt7O8vMK1CdAbt-71" value="Common Services" style="fillColor=none;strokeColor=#5A6C86;dashed=1;verticalAlign=top;fontStyle=0;fontColor=#5A6C86;fontSize=10;" parent="RJmhnvJt7O8vMK1CdAbt-5" vertex="1">
                    <mxGeometry x="760" y="569" width="91" height="301" as="geometry"/>
                </mxCell>
                <mxCell id="RJmhnvJt7O8vMK1CdAbt-259" style="edgeStyle=orthogonalEdgeStyle;rounded=0;orthogonalLoop=1;jettySize=auto;html=1;fontSize=10;" parent="RJmhnvJt7O8vMK1CdAbt-5" source="RJmhnvJt7O8vMK1CdAbt-61" target="RJmhnvJt7O8vMK1CdAbt-256" edge="1">
                    <mxGeometry relative="1" as="geometry"/>
                </mxCell>
                <mxCell id="RJmhnvJt7O8vMK1CdAbt-8" value="&lt;b&gt;Edge - VPC.&amp;nbsp; &amp;nbsp;[10.1.0.0/16]&lt;/b&gt;" style="points=[[0,0],[0.25,0],[0.5,0],[0.75,0],[1,0],[1,0.25],[1,0.5],[1,0.75],[1,1],[0.75,1],[0.5,1],[0.25,1],[0,1],[0,0.75],[0,0.5],[0,0.25]];outlineConnect=0;gradientColor=none;html=1;whiteSpace=wrap;fontSize=12;fontStyle=0;container=1;pointerEvents=0;collapsible=0;recursiveResize=0;shape=mxgraph.aws4.group;grIcon=mxgraph.aws4.group_vpc;strokeColor=#248814;fillColor=none;verticalAlign=top;align=left;spacingLeft=30;fontColor=#AAB7B8;dashed=0;" parent="RJmhnvJt7O8vMK1CdAbt-5" vertex="1">
                    <mxGeometry x="73" y="40" width="660" height="420" as="geometry"/>
                </mxCell>
                <mxCell id="RJmhnvJt7O8vMK1CdAbt-6" value="Availability Zone - 1" style="fillColor=none;strokeColor=#147EBA;dashed=1;verticalAlign=top;fontStyle=0;fontColor=#147EBA;" parent="RJmhnvJt7O8vMK1CdAbt-8" vertex="1">
                    <mxGeometry x="56" y="30" width="170" height="350" as="geometry"/>
                </mxCell>
                <mxCell id="RJmhnvJt7O8vMK1CdAbt-10" value="Public subnet&lt;br&gt;[10.1.1.0/24]" style="points=[[0,0],[0.25,0],[0.5,0],[0.75,0],[1,0],[1,0.25],[1,0.5],[1,0.75],[1,1],[0.75,1],[0.5,1],[0.25,1],[0,1],[0,0.75],[0,0.5],[0,0.25]];outlineConnect=0;gradientColor=none;html=1;whiteSpace=wrap;fontSize=12;fontStyle=0;container=1;pointerEvents=0;collapsible=0;recursiveResize=0;shape=mxgraph.aws4.group;grIcon=mxgraph.aws4.group_security_group;grStroke=0;strokeColor=#248814;fillColor=#E9F3E6;verticalAlign=top;align=left;spacingLeft=30;fontColor=#248814;dashed=0;" parent="RJmhnvJt7O8vMK1CdAbt-8" vertex="1">
                    <mxGeometry x="76" y="65" width="130" height="135" as="geometry"/>
                </mxCell>
                <mxCell id="RJmhnvJt7O8vMK1CdAbt-24" value="Availability Zone - 2" style="fillColor=none;strokeColor=#147EBA;dashed=1;verticalAlign=top;fontStyle=0;fontColor=#147EBA;" parent="RJmhnvJt7O8vMK1CdAbt-8" vertex="1">
                    <mxGeometry x="256" y="30" width="170" height="350" as="geometry"/>
                </mxCell>
                <mxCell id="RJmhnvJt7O8vMK1CdAbt-25" value="Availability Zone - 3" style="fillColor=none;strokeColor=#147EBA;dashed=1;verticalAlign=top;fontStyle=0;fontColor=#147EBA;" parent="RJmhnvJt7O8vMK1CdAbt-8" vertex="1">
                    <mxGeometry x="456" y="30" width="170" height="350" as="geometry"/>
                </mxCell>
                <mxCell id="RJmhnvJt7O8vMK1CdAbt-26" value="Public subnet&lt;br&gt;[10.1.2.0/24]" style="points=[[0,0],[0.25,0],[0.5,0],[0.75,0],[1,0],[1,0.25],[1,0.5],[1,0.75],[1,1],[0.75,1],[0.5,1],[0.25,1],[0,1],[0,0.75],[0,0.5],[0,0.25]];outlineConnect=0;gradientColor=none;html=1;whiteSpace=wrap;fontSize=12;fontStyle=0;container=1;pointerEvents=0;collapsible=0;recursiveResize=0;shape=mxgraph.aws4.group;grIcon=mxgraph.aws4.group_security_group;grStroke=0;strokeColor=#248814;fillColor=#E9F3E6;verticalAlign=top;align=left;spacingLeft=30;fontColor=#248814;dashed=0;" parent="RJmhnvJt7O8vMK1CdAbt-8" vertex="1">
                    <mxGeometry x="275" y="65" width="130" height="135" as="geometry"/>
                </mxCell>
                <mxCell id="RJmhnvJt7O8vMK1CdAbt-27" value="Public subnet&lt;br&gt;[10.1.3.0/24]" style="points=[[0,0],[0.25,0],[0.5,0],[0.75,0],[1,0],[1,0.25],[1,0.5],[1,0.75],[1,1],[0.75,1],[0.5,1],[0.25,1],[0,1],[0,0.75],[0,0.5],[0,0.25]];outlineConnect=0;gradientColor=none;html=1;whiteSpace=wrap;fontSize=12;fontStyle=0;container=1;pointerEvents=0;collapsible=0;recursiveResize=0;shape=mxgraph.aws4.group;grIcon=mxgraph.aws4.group_security_group;grStroke=0;strokeColor=#248814;fillColor=#E9F3E6;verticalAlign=top;align=left;spacingLeft=30;fontColor=#248814;dashed=0;" parent="RJmhnvJt7O8vMK1CdAbt-8" vertex="1">
                    <mxGeometry x="476" y="65" width="130" height="135" as="geometry"/>
                </mxCell>
                <mxCell id="RJmhnvJt7O8vMK1CdAbt-32" value="&lt;font style=&quot;font-size: 12px&quot;&gt;Bastion&lt;/font&gt;" style="sketch=0;points=[[0,0,0],[0.25,0,0],[0.5,0,0],[0.75,0,0],[1,0,0],[0,1,0],[0.25,1,0],[0.5,1,0],[0.75,1,0],[1,1,0],[0,0.25,0],[0,0.5,0],[0,0.75,0],[1,0.25,0],[1,0.5,0],[1,0.75,0]];outlineConnect=0;fontColor=#232F3E;gradientColor=#F78E04;gradientDirection=north;fillColor=#D05C17;strokeColor=#ffffff;dashed=0;verticalLabelPosition=bottom;verticalAlign=top;align=center;html=1;fontSize=12;fontStyle=0;aspect=fixed;shape=mxgraph.aws4.resourceIcon;resIcon=mxgraph.aws4.ec2;" parent="RJmhnvJt7O8vMK1CdAbt-27" vertex="1">
                    <mxGeometry x="46" y="59" width="38" height="38" as="geometry"/>
                </mxCell>
                <mxCell id="RJmhnvJt7O8vMK1CdAbt-30" value="&lt;font style=&quot;font-size: 12px&quot;&gt;Bastion&lt;/font&gt;" style="sketch=0;points=[[0,0,0],[0.25,0,0],[0.5,0,0],[0.75,0,0],[1,0,0],[0,1,0],[0.25,1,0],[0.5,1,0],[0.75,1,0],[1,1,0],[0,0.25,0],[0,0.5,0],[0,0.75,0],[1,0.25,0],[1,0.5,0],[1,0.75,0]];outlineConnect=0;fontColor=#232F3E;gradientColor=#F78E04;gradientDirection=north;fillColor=#D05C17;strokeColor=#ffffff;dashed=0;verticalLabelPosition=bottom;verticalAlign=top;align=center;html=1;fontSize=12;fontStyle=0;aspect=fixed;shape=mxgraph.aws4.resourceIcon;resIcon=mxgraph.aws4.ec2;" parent="RJmhnvJt7O8vMK1CdAbt-8" vertex="1">
                    <mxGeometry x="124" y="127" width="38" height="38" as="geometry"/>
                </mxCell>
                <mxCell id="RJmhnvJt7O8vMK1CdAbt-31" value="&lt;font style=&quot;font-size: 12px&quot;&gt;Bastion&lt;/font&gt;" style="sketch=0;points=[[0,0,0],[0.25,0,0],[0.5,0,0],[0.75,0,0],[1,0,0],[0,1,0],[0.25,1,0],[0.5,1,0],[0.75,1,0],[1,1,0],[0,0.25,0],[0,0.5,0],[0,0.75,0],[1,0.25,0],[1,0.5,0],[1,0.75,0]];outlineConnect=0;fontColor=#232F3E;gradientColor=#F78E04;gradientDirection=north;fillColor=#D05C17;strokeColor=#ffffff;dashed=0;verticalLabelPosition=bottom;verticalAlign=top;align=center;html=1;fontSize=12;fontStyle=0;aspect=fixed;shape=mxgraph.aws4.resourceIcon;resIcon=mxgraph.aws4.ec2;" parent="RJmhnvJt7O8vMK1CdAbt-8" vertex="1">
                    <mxGeometry x="322" y="127" width="38" height="38" as="geometry"/>
                </mxCell>
                <mxCell id="RJmhnvJt7O8vMK1CdAbt-19" value="Private subnet&lt;br&gt;[10.1.6.0/24]" style="points=[[0,0],[0.25,0],[0.5,0],[0.75,0],[1,0],[1,0.25],[1,0.5],[1,0.75],[1,1],[0.75,1],[0.5,1],[0.25,1],[0,1],[0,0.75],[0,0.5],[0,0.25]];outlineConnect=0;gradientColor=none;html=1;whiteSpace=wrap;fontSize=12;fontStyle=0;container=1;pointerEvents=0;collapsible=0;recursiveResize=0;shape=mxgraph.aws4.group;grIcon=mxgraph.aws4.group_security_group;grStroke=0;strokeColor=#147EBA;fillColor=#E6F2F8;verticalAlign=top;align=left;spacingLeft=30;fontColor=#147EBA;dashed=0;" parent="RJmhnvJt7O8vMK1CdAbt-8" vertex="1">
                    <mxGeometry x="476" y="240" width="130" height="130" as="geometry"/>
                </mxCell>
                <mxCell id="RJmhnvJt7O8vMK1CdAbt-49" value="Private subnet&lt;br&gt;[10.1.5.0/24]" style="points=[[0,0],[0.25,0],[0.5,0],[0.75,0],[1,0],[1,0.25],[1,0.5],[1,0.75],[1,1],[0.75,1],[0.5,1],[0.25,1],[0,1],[0,0.75],[0,0.5],[0,0.25]];outlineConnect=0;gradientColor=none;html=1;whiteSpace=wrap;fontSize=12;fontStyle=0;container=1;pointerEvents=0;collapsible=0;recursiveResize=0;shape=mxgraph.aws4.group;grIcon=mxgraph.aws4.group_security_group;grStroke=0;strokeColor=#147EBA;fillColor=#E6F2F8;verticalAlign=top;align=left;spacingLeft=30;fontColor=#147EBA;dashed=0;" parent="RJmhnvJt7O8vMK1CdAbt-8" vertex="1">
                    <mxGeometry x="275" y="240" width="131" height="130" as="geometry"/>
                </mxCell>
                <mxCell id="RJmhnvJt7O8vMK1CdAbt-48" value="Private subnet&lt;br&gt;[10.1.4.0/24]" style="points=[[0,0],[0.25,0],[0.5,0],[0.75,0],[1,0],[1,0.25],[1,0.5],[1,0.75],[1,1],[0.75,1],[0.5,1],[0.25,1],[0,1],[0,0.75],[0,0.5],[0,0.25]];outlineConnect=0;gradientColor=none;html=1;whiteSpace=wrap;fontSize=12;fontStyle=0;container=1;pointerEvents=0;collapsible=0;recursiveResize=0;shape=mxgraph.aws4.group;grIcon=mxgraph.aws4.group_security_group;grStroke=0;strokeColor=#147EBA;fillColor=#E6F2F8;verticalAlign=top;align=left;spacingLeft=30;fontColor=#147EBA;dashed=0;" parent="RJmhnvJt7O8vMK1CdAbt-8" vertex="1">
                    <mxGeometry x="76" y="240" width="130" height="130" as="geometry"/>
                </mxCell>
                <mxCell id="RJmhnvJt7O8vMK1CdAbt-35" value="&lt;font style=&quot;font-size: 12px&quot;&gt;Instance&lt;/font&gt;" style="sketch=0;points=[[0,0,0],[0.25,0,0],[0.5,0,0],[0.75,0,0],[1,0,0],[0,1,0],[0.25,1,0],[0.5,1,0],[0.75,1,0],[1,1,0],[0,0.25,0],[0,0.5,0],[0,0.75,0],[1,0.25,0],[1,0.5,0],[1,0.75,0]];outlineConnect=0;fontColor=#232F3E;gradientColor=#F78E04;gradientDirection=north;fillColor=#D05C17;strokeColor=#ffffff;dashed=0;verticalLabelPosition=bottom;verticalAlign=top;align=center;html=1;fontSize=12;fontStyle=0;aspect=fixed;shape=mxgraph.aws4.resourceIcon;resIcon=mxgraph.aws4.ec2;" parent="RJmhnvJt7O8vMK1CdAbt-48" vertex="1">
                    <mxGeometry x="46" y="55" width="38" height="38" as="geometry"/>
                </mxCell>
                <mxCell id="RJmhnvJt7O8vMK1CdAbt-7" value="Security group" style="fillColor=none;strokeColor=#DD3522;verticalAlign=top;fontStyle=0;fontColor=#DD3522;" parent="RJmhnvJt7O8vMK1CdAbt-8" vertex="1">
                    <mxGeometry x="85" y="100" width="510" height="84" as="geometry"/>
                </mxCell>
                <mxCell id="RJmhnvJt7O8vMK1CdAbt-64" value="Client VPN" style="sketch=0;points=[[0,0,0],[0.25,0,0],[0.5,0,0],[0.75,0,0],[1,0,0],[0,1,0],[0.25,1,0],[0.5,1,0],[0.75,1,0],[1,1,0],[0,0.25,0],[0,0.5,0],[0,0.75,0],[1,0.25,0],[1,0.5,0],[1,0.75,0]];outlineConnect=0;fontColor=#232F3E;gradientColor=#945DF2;gradientDirection=north;fillColor=#5A30B5;strokeColor=#ffffff;dashed=0;verticalLabelPosition=bottom;verticalAlign=top;align=center;html=1;fontSize=12;fontStyle=0;aspect=fixed;shape=mxgraph.aws4.resourceIcon;resIcon=mxgraph.aws4.client_vpn;" parent="RJmhnvJt7O8vMK1CdAbt-8" vertex="1">
                    <mxGeometry x="-18" y="40" width="34" height="34" as="geometry"/>
                </mxCell>
                <mxCell id="RJmhnvJt7O8vMK1CdAbt-50" value="&lt;font style=&quot;font-size: 12px&quot;&gt;Instance&lt;/font&gt;" style="sketch=0;points=[[0,0,0],[0.25,0,0],[0.5,0,0],[0.75,0,0],[1,0,0],[0,1,0],[0.25,1,0],[0.5,1,0],[0.75,1,0],[1,1,0],[0,0.25,0],[0,0.5,0],[0,0.75,0],[1,0.25,0],[1,0.5,0],[1,0.75,0]];outlineConnect=0;fontColor=#232F3E;gradientColor=#F78E04;gradientDirection=north;fillColor=#D05C17;strokeColor=#ffffff;dashed=0;verticalLabelPosition=bottom;verticalAlign=top;align=center;html=1;fontSize=12;fontStyle=0;aspect=fixed;shape=mxgraph.aws4.resourceIcon;resIcon=mxgraph.aws4.ec2;" parent="RJmhnvJt7O8vMK1CdAbt-8" vertex="1">
                    <mxGeometry x="321" y="301" width="38" height="38" as="geometry"/>
                </mxCell>
                <mxCell id="RJmhnvJt7O8vMK1CdAbt-34" value="&lt;font style=&quot;font-size: 12px&quot;&gt;Instance&lt;/font&gt;" style="sketch=0;points=[[0,0,0],[0.25,0,0],[0.5,0,0],[0.75,0,0],[1,0,0],[0,1,0],[0.25,1,0],[0.5,1,0],[0.75,1,0],[1,1,0],[0,0.25,0],[0,0.5,0],[0,0.75,0],[1,0.25,0],[1,0.5,0],[1,0.75,0]];outlineConnect=0;fontColor=#232F3E;gradientColor=#F78E04;gradientDirection=north;fillColor=#D05C17;strokeColor=#ffffff;dashed=0;verticalLabelPosition=bottom;verticalAlign=top;align=center;html=1;fontSize=12;fontStyle=0;aspect=fixed;shape=mxgraph.aws4.resourceIcon;resIcon=mxgraph.aws4.ec2;" parent="RJmhnvJt7O8vMK1CdAbt-8" vertex="1">
                    <mxGeometry x="522" y="298" width="38" height="38" as="geometry"/>
                </mxCell>
                <mxCell id="RJmhnvJt7O8vMK1CdAbt-63" value="Security group" style="fillColor=none;strokeColor=#DD3522;verticalAlign=top;fontStyle=0;fontColor=#DD3522;" parent="RJmhnvJt7O8vMK1CdAbt-8" vertex="1">
                    <mxGeometry x="86" y="278" width="510" height="84" as="geometry"/>
                </mxCell>
                <mxCell id="RJmhnvJt7O8vMK1CdAbt-66" value="&lt;font style=&quot;font-size: 10px&quot;&gt;Route&lt;/font&gt;" style="sketch=0;outlineConnect=0;fontColor=#232F3E;gradientColor=none;fillColor=#4D27AA;strokeColor=none;dashed=0;verticalLabelPosition=bottom;verticalAlign=top;align=center;html=1;fontSize=12;fontStyle=0;aspect=fixed;pointerEvents=1;shape=mxgraph.aws4.router;" parent="RJmhnvJt7O8vMK1CdAbt-8" vertex="1">
                    <mxGeometry x="20" y="230" width="28" height="28" as="geometry"/>
                </mxCell>
                <mxCell id="RJmhnvJt7O8vMK1CdAbt-243" value="&lt;font style=&quot;font-size: 10px&quot;&gt;Route&lt;/font&gt;" style="sketch=0;outlineConnect=0;fontColor=#232F3E;gradientColor=none;fillColor=#4D27AA;strokeColor=none;dashed=0;verticalLabelPosition=bottom;verticalAlign=top;align=center;html=1;fontSize=12;fontStyle=0;aspect=fixed;pointerEvents=1;shape=mxgraph.aws4.router;" parent="RJmhnvJt7O8vMK1CdAbt-8" vertex="1">
                    <mxGeometry x="20" y="128" width="28" height="28" as="geometry"/>
                </mxCell>
                <mxCell id="RJmhnvJt7O8vMK1CdAbt-62" value="&lt;font style=&quot;font-size: 10px&quot;&gt;NACL&lt;/font&gt;" style="sketch=0;outlineConnect=0;fontColor=#232F3E;gradientColor=none;fillColor=#4D27AA;strokeColor=none;dashed=0;verticalLabelPosition=bottom;verticalAlign=top;align=center;html=1;fontSize=12;fontStyle=0;aspect=fixed;pointerEvents=1;shape=mxgraph.aws4.network_access_control_list;" parent="RJmhnvJt7O8vMK1CdAbt-5" vertex="1">
                    <mxGeometry x="714" y="396" width="40" height="40" as="geometry"/>
                </mxCell>
                <mxCell id="RJmhnvJt7O8vMK1CdAbt-61" value="&lt;font style=&quot;font-size: 10px&quot;&gt;NACL&lt;/font&gt;" style="sketch=0;outlineConnect=0;fontColor=#232F3E;gradientColor=none;fillColor=#4D27AA;strokeColor=none;dashed=0;verticalLabelPosition=bottom;verticalAlign=top;align=center;html=1;fontSize=12;fontStyle=0;aspect=fixed;pointerEvents=1;shape=mxgraph.aws4.network_access_control_list;" parent="RJmhnvJt7O8vMK1CdAbt-5" vertex="1">
                    <mxGeometry x="724" y="207" width="40" height="40" as="geometry"/>
                </mxCell>
                <mxCell id="RJmhnvJt7O8vMK1CdAbt-242" style="edgeStyle=orthogonalEdgeStyle;rounded=0;orthogonalLoop=1;jettySize=auto;html=1;fontSize=10;" parent="RJmhnvJt7O8vMK1CdAbt-5" source="RJmhnvJt7O8vMK1CdAbt-46" target="RJmhnvJt7O8vMK1CdAbt-66" edge="1">
                    <mxGeometry relative="1" as="geometry"/>
                </mxCell>
                <mxCell id="RJmhnvJt7O8vMK1CdAbt-46" value="&lt;font style=&quot;font-size: 10px&quot;&gt;NAT GW&lt;/font&gt;" style="sketch=0;outlineConnect=0;fontColor=#232F3E;gradientColor=none;fillColor=#4D27AA;strokeColor=none;dashed=0;verticalLabelPosition=bottom;verticalAlign=top;align=center;html=1;fontSize=12;fontStyle=0;aspect=fixed;pointerEvents=1;shape=mxgraph.aws4.nat_gateway;" parent="RJmhnvJt7O8vMK1CdAbt-5" vertex="1">
                    <mxGeometry x="53" y="394" width="38" height="38" as="geometry"/>
                </mxCell>
                <mxCell id="RJmhnvJt7O8vMK1CdAbt-244" style="edgeStyle=orthogonalEdgeStyle;rounded=0;orthogonalLoop=1;jettySize=auto;html=1;fontSize=10;" parent="RJmhnvJt7O8vMK1CdAbt-5" source="RJmhnvJt7O8vMK1CdAbt-40" target="RJmhnvJt7O8vMK1CdAbt-243" edge="1">
                    <mxGeometry relative="1" as="geometry">
                        <mxPoint x="110" y="210" as="targetPoint"/>
                        <Array as="points">
                            <mxPoint x="111" y="219"/>
                        </Array>
                    </mxGeometry>
                </mxCell>
                <mxCell id="RJmhnvJt7O8vMK1CdAbt-40" value="&lt;font style=&quot;font-size: 10px&quot;&gt;Internet GW&lt;/font&gt;" style="sketch=0;outlineConnect=0;fontColor=#232F3E;gradientColor=none;fillColor=#4D27AA;strokeColor=none;dashed=0;verticalLabelPosition=bottom;verticalAlign=top;align=center;html=1;fontSize=12;fontStyle=0;aspect=fixed;pointerEvents=1;shape=mxgraph.aws4.internet_gateway;" parent="RJmhnvJt7O8vMK1CdAbt-5" vertex="1">
                    <mxGeometry x="53" y="200" width="38" height="38" as="geometry"/>
                </mxCell>
                <mxCell id="RJmhnvJt7O8vMK1CdAbt-70" value="KMS" style="sketch=0;points=[[0,0,0],[0.25,0,0],[0.5,0,0],[0.75,0,0],[1,0,0],[0,1,0],[0.25,1,0],[0.5,1,0],[0.75,1,0],[1,1,0],[0,0.25,0],[0,0.5,0],[0,0.75,0],[1,0.25,0],[1,0.5,0],[1,0.75,0]];outlineConnect=0;fontColor=#232F3E;gradientColor=#F54749;gradientDirection=north;fillColor=#C7131F;strokeColor=#ffffff;dashed=0;verticalLabelPosition=bottom;verticalAlign=top;align=center;html=1;fontSize=12;fontStyle=0;aspect=fixed;shape=mxgraph.aws4.resourceIcon;resIcon=mxgraph.aws4.key_management_service;" parent="RJmhnvJt7O8vMK1CdAbt-5" vertex="1">
                    <mxGeometry x="782" y="600" width="38" height="38" as="geometry"/>
                </mxCell>
                <mxCell id="RJmhnvJt7O8vMK1CdAbt-72" value="S3" style="sketch=0;outlineConnect=0;fontColor=#232F3E;gradientColor=none;fillColor=#3F8624;strokeColor=none;dashed=0;verticalLabelPosition=bottom;verticalAlign=top;align=center;html=1;fontSize=12;fontStyle=0;aspect=fixed;pointerEvents=1;shape=mxgraph.aws4.bucket;" parent="RJmhnvJt7O8vMK1CdAbt-5" vertex="1">
                    <mxGeometry x="788" y="664" width="37.5" height="39" as="geometry"/>
                </mxCell>
                <mxCell id="RJmhnvJt7O8vMK1CdAbt-73" value="&lt;font style=&quot;font-size: 10px&quot;&gt;Cloud Watch&lt;/font&gt;" style="sketch=0;points=[[0,0,0],[0.25,0,0],[0.5,0,0],[0.75,0,0],[1,0,0],[0,1,0],[0.25,1,0],[0.5,1,0],[0.75,1,0],[1,1,0],[0,0.25,0],[0,0.5,0],[0,0.75,0],[1,0.25,0],[1,0.5,0],[1,0.75,0]];points=[[0,0,0],[0.25,0,0],[0.5,0,0],[0.75,0,0],[1,0,0],[0,1,0],[0.25,1,0],[0.5,1,0],[0.75,1,0],[1,1,0],[0,0.25,0],[0,0.5,0],[0,0.75,0],[1,0.25,0],[1,0.5,0],[1,0.75,0]];outlineConnect=0;fontColor=#232F3E;gradientColor=#F34482;gradientDirection=north;fillColor=#BC1356;strokeColor=#ffffff;dashed=0;verticalLabelPosition=bottom;verticalAlign=top;align=center;html=1;fontSize=12;fontStyle=0;aspect=fixed;shape=mxgraph.aws4.resourceIcon;resIcon=mxgraph.aws4.cloudwatch_2;" parent="RJmhnvJt7O8vMK1CdAbt-5" vertex="1">
                    <mxGeometry x="788" y="731" width="38" height="38" as="geometry"/>
                </mxCell>
                <mxCell id="RJmhnvJt7O8vMK1CdAbt-76" value="&lt;font style=&quot;font-size: 10px&quot;&gt;Cloud Trail&lt;/font&gt;" style="sketch=0;points=[[0,0,0],[0.25,0,0],[0.5,0,0],[0.75,0,0],[1,0,0],[0,1,0],[0.25,1,0],[0.5,1,0],[0.75,1,0],[1,1,0],[0,0.25,0],[0,0.5,0],[0,0.75,0],[1,0.25,0],[1,0.5,0],[1,0.75,0]];points=[[0,0,0],[0.25,0,0],[0.5,0,0],[0.75,0,0],[1,0,0],[0,1,0],[0.25,1,0],[0.5,1,0],[0.75,1,0],[1,1,0],[0,0.25,0],[0,0.5,0],[0,0.75,0],[1,0.25,0],[1,0.5,0],[1,0.75,0]];outlineConnect=0;fontColor=#232F3E;gradientColor=#F34482;gradientDirection=north;fillColor=#BC1356;strokeColor=#ffffff;dashed=0;verticalLabelPosition=bottom;verticalAlign=top;align=center;html=1;fontSize=12;fontStyle=0;aspect=fixed;shape=mxgraph.aws4.resourceIcon;resIcon=mxgraph.aws4.cloudtrail;" parent="RJmhnvJt7O8vMK1CdAbt-5" vertex="1">
                    <mxGeometry x="789.5" y="798" width="38" height="38" as="geometry"/>
                </mxCell>
                <mxCell id="RJmhnvJt7O8vMK1CdAbt-83" value="" style="edgeStyle=orthogonalEdgeStyle;html=1;endArrow=open;elbow=vertical;startArrow=open;startFill=0;endFill=0;strokeColor=#545B64;rounded=0;fontSize=10;exitX=0.892;exitY=1.012;exitDx=0;exitDy=0;exitPerimeter=0;" parent="RJmhnvJt7O8vMK1CdAbt-5" source="RJmhnvJt7O8vMK1CdAbt-7" edge="1">
                    <mxGeometry width="100" relative="1" as="geometry">
                        <mxPoint x="407" y="510" as="sourcePoint"/>
                        <mxPoint x="73" y="240" as="targetPoint"/>
                        <Array as="points">
                            <mxPoint x="613" y="260"/>
                            <mxPoint x="73" y="260"/>
                        </Array>
                    </mxGeometry>
                </mxCell>
                <mxCell id="RJmhnvJt7O8vMK1CdAbt-84" value="" style="edgeStyle=orthogonalEdgeStyle;html=1;endArrow=open;elbow=vertical;startArrow=open;startFill=0;endFill=0;strokeColor=#545B64;rounded=0;fontSize=10;entryX=0.117;entryY=1.015;entryDx=0;entryDy=0;entryPerimeter=0;" parent="RJmhnvJt7O8vMK1CdAbt-5" target="RJmhnvJt7O8vMK1CdAbt-7" edge="1">
                    <mxGeometry width="100" relative="1" as="geometry">
                        <mxPoint x="218" y="260" as="sourcePoint"/>
                        <mxPoint x="283" y="570" as="targetPoint"/>
                    </mxGeometry>
                </mxCell>
                <mxCell id="RJmhnvJt7O8vMK1CdAbt-85" value="" style="edgeStyle=orthogonalEdgeStyle;html=1;endArrow=open;elbow=vertical;startArrow=open;startFill=0;endFill=0;strokeColor=#545B64;rounded=0;fontSize=10;entryX=0.514;entryY=1.004;entryDx=0;entryDy=0;entryPerimeter=0;" parent="RJmhnvJt7O8vMK1CdAbt-5" target="RJmhnvJt7O8vMK1CdAbt-7" edge="1">
                    <mxGeometry width="100" relative="1" as="geometry">
                        <mxPoint x="420" y="260" as="sourcePoint"/>
                        <mxPoint x="393" y="522" as="targetPoint"/>
                    </mxGeometry>
                </mxCell>
                <mxCell id="RJmhnvJt7O8vMK1CdAbt-91" value="" style="edgeStyle=orthogonalEdgeStyle;html=1;endArrow=open;elbow=vertical;startArrow=open;startFill=0;endFill=0;strokeColor=#545B64;rounded=0;fontSize=10;" parent="RJmhnvJt7O8vMK1CdAbt-5" source="RJmhnvJt7O8vMK1CdAbt-24" edge="1">
                    <mxGeometry width="100" relative="1" as="geometry">
                        <mxPoint x="323" y="544.52" as="sourcePoint"/>
                        <mxPoint x="414" y="450" as="targetPoint"/>
                        <Array as="points">
                            <mxPoint x="414" y="430"/>
                            <mxPoint x="414" y="430"/>
                        </Array>
                    </mxGeometry>
                </mxCell>
                <mxCell id="RJmhnvJt7O8vMK1CdAbt-86" value="" style="edgeStyle=orthogonalEdgeStyle;html=1;endArrow=open;elbow=vertical;startArrow=open;startFill=0;endFill=0;strokeColor=#545B64;rounded=0;fontSize=10;" parent="RJmhnvJt7O8vMK1CdAbt-5" source="RJmhnvJt7O8vMK1CdAbt-19" target="RJmhnvJt7O8vMK1CdAbt-46" edge="1">
                    <mxGeometry width="100" relative="1" as="geometry">
                        <mxPoint x="628.9199999999998" y="420.6679999999999" as="sourcePoint"/>
                        <mxPoint x="89" y="430.65999999999997" as="targetPoint"/>
                        <Array as="points">
                            <mxPoint x="629" y="451"/>
                            <mxPoint x="73" y="451"/>
                        </Array>
                    </mxGeometry>
                </mxCell>
                <mxCell id="RJmhnvJt7O8vMK1CdAbt-95" value="" style="edgeStyle=orthogonalEdgeStyle;html=1;endArrow=open;elbow=vertical;startArrow=open;startFill=0;endFill=0;strokeColor=#545B64;rounded=0;fontSize=10;exitX=0.75;exitY=1;exitDx=0;exitDy=0;" parent="RJmhnvJt7O8vMK1CdAbt-5" source="RJmhnvJt7O8vMK1CdAbt-6" target="RJmhnvJt7O8vMK1CdAbt-62" edge="1">
                    <mxGeometry width="100" relative="1" as="geometry">
                        <mxPoint x="373" y="486" as="sourcePoint"/>
                        <mxPoint x="473" y="486" as="targetPoint"/>
                        <Array as="points">
                            <mxPoint x="257" y="440"/>
                            <mxPoint x="700" y="440"/>
                            <mxPoint x="700" y="416"/>
                        </Array>
                    </mxGeometry>
                </mxCell>
                <mxCell id="RJmhnvJt7O8vMK1CdAbt-202" value="&lt;font style=&quot;font-size: 10px&quot;&gt;VPC Peering&lt;/font&gt;" style="sketch=0;outlineConnect=0;fontColor=#232F3E;gradientColor=none;fillColor=#4D27AA;strokeColor=none;dashed=0;verticalLabelPosition=bottom;verticalAlign=top;align=center;html=1;fontSize=12;fontStyle=0;aspect=fixed;pointerEvents=1;shape=mxgraph.aws4.peering;" parent="RJmhnvJt7O8vMK1CdAbt-5" vertex="1">
                    <mxGeometry x="-20" y="467" width="38" height="38" as="geometry"/>
                </mxCell>
                <mxCell id="RJmhnvJt7O8vMK1CdAbt-204" value="&lt;font style=&quot;font-size: 10px&quot;&gt;VPC Peering&lt;/font&gt;" style="sketch=0;outlineConnect=0;fontColor=#232F3E;gradientColor=none;fillColor=#4D27AA;strokeColor=none;dashed=0;verticalLabelPosition=bottom;verticalAlign=top;align=center;html=1;fontSize=12;fontStyle=0;aspect=fixed;pointerEvents=1;shape=mxgraph.aws4.peering;" parent="RJmhnvJt7O8vMK1CdAbt-5" vertex="1">
                    <mxGeometry x="-20" y="910" width="38" height="38" as="geometry"/>
                </mxCell>
                <mxCell id="RJmhnvJt7O8vMK1CdAbt-205" value="" style="edgeStyle=orthogonalEdgeStyle;html=1;endArrow=open;elbow=vertical;startArrow=open;startFill=0;endFill=0;strokeColor=#545B64;rounded=0;fontSize=10;exitX=0;exitY=0.75;exitDx=0;exitDy=0;" parent="RJmhnvJt7O8vMK1CdAbt-5" source="RJmhnvJt7O8vMK1CdAbt-8" target="RJmhnvJt7O8vMK1CdAbt-202" edge="1">
                    <mxGeometry width="100" relative="1" as="geometry">
                        <mxPoint x="-57" y="420" as="sourcePoint"/>
                        <mxPoint x="43" y="420" as="targetPoint"/>
                    </mxGeometry>
                </mxCell>
                <mxCell id="RJmhnvJt7O8vMK1CdAbt-226" value="Application LB" style="sketch=0;outlineConnect=0;fontColor=#232F3E;gradientColor=none;fillColor=#4D27AA;strokeColor=none;dashed=0;verticalLabelPosition=bottom;verticalAlign=top;align=center;html=1;fontSize=12;fontStyle=0;aspect=fixed;pointerEvents=1;shape=mxgraph.aws4.application_load_balancer;" parent="RJmhnvJt7O8vMK1CdAbt-5" vertex="1">
                    <mxGeometry x="-25" y="1050" width="48" height="48" as="geometry"/>
                </mxCell>
                <mxCell id="RJmhnvJt7O8vMK1CdAbt-238" value="&lt;font style=&quot;font-size: 10px&quot;&gt;VPN Gateway&lt;/font&gt;" style="sketch=0;outlineConnect=0;fontColor=#232F3E;gradientColor=none;fillColor=#4D27AA;strokeColor=none;dashed=0;verticalLabelPosition=bottom;verticalAlign=top;align=center;html=1;fontSize=12;fontStyle=0;aspect=fixed;pointerEvents=1;shape=mxgraph.aws4.vpc_carrier_gateway;" parent="RJmhnvJt7O8vMK1CdAbt-5" vertex="1">
                    <mxGeometry x="716" y="90" width="38" height="38" as="geometry"/>
                </mxCell>
                <mxCell id="RJmhnvJt7O8vMK1CdAbt-257" style="edgeStyle=orthogonalEdgeStyle;rounded=0;orthogonalLoop=1;jettySize=auto;html=1;fontSize=10;" parent="RJmhnvJt7O8vMK1CdAbt-5" source="RJmhnvJt7O8vMK1CdAbt-256" target="RJmhnvJt7O8vMK1CdAbt-72" edge="1">
                    <mxGeometry relative="1" as="geometry">
                        <Array as="points">
                            <mxPoint x="890" y="504"/>
                            <mxPoint x="890" y="684"/>
                        </Array>
                    </mxGeometry>
                </mxCell>
                <mxCell id="RJmhnvJt7O8vMK1CdAbt-256" value="&lt;font style=&quot;font-size: 10px&quot;&gt;Private Endpoints&lt;/font&gt;" style="sketch=0;outlineConnect=0;fontColor=#232F3E;gradientColor=none;fillColor=#4D27AA;strokeColor=none;dashed=0;verticalLabelPosition=bottom;verticalAlign=top;align=center;html=1;fontSize=12;fontStyle=0;aspect=fixed;pointerEvents=1;shape=mxgraph.aws4.endpoints;" parent="RJmhnvJt7O8vMK1CdAbt-5" vertex="1">
                    <mxGeometry x="790" y="483" width="42" height="42" as="geometry"/>
                </mxCell>
                <mxCell id="RJmhnvJt7O8vMK1CdAbt-241" style="edgeStyle=orthogonalEdgeStyle;rounded=0;orthogonalLoop=1;jettySize=auto;html=1;fontSize=10;" parent="RJmhnvJt7O8vMK1CdAbt-4" source="RJmhnvJt7O8vMK1CdAbt-237" target="RJmhnvJt7O8vMK1CdAbt-238" edge="1">
                    <mxGeometry relative="1" as="geometry">
                        <Array as="points">
                            <mxPoint x="870" y="188"/>
                            <mxPoint x="870" y="150"/>
                        </Array>
                    </mxGeometry>
                </mxCell>
                <mxCell id="RJmhnvJt7O8vMK1CdAbt-237" value="&lt;font style=&quot;font-size: 10px&quot;&gt;Direct Connect&lt;/font&gt;" style="sketch=0;points=[[0,0,0],[0.25,0,0],[0.5,0,0],[0.75,0,0],[1,0,0],[0,1,0],[0.25,1,0],[0.5,1,0],[0.75,1,0],[1,1,0],[0,0.25,0],[0,0.5,0],[0,0.75,0],[1,0.25,0],[1,0.5,0],[1,0.75,0]];outlineConnect=0;fontColor=#232F3E;gradientColor=#945DF2;gradientDirection=north;fillColor=#5A30B5;strokeColor=#ffffff;dashed=0;verticalLabelPosition=bottom;verticalAlign=top;align=center;html=1;fontSize=12;fontStyle=0;aspect=fixed;shape=mxgraph.aws4.resourceIcon;resIcon=mxgraph.aws4.direct_connect;" parent="RJmhnvJt7O8vMK1CdAbt-4" vertex="1">
                    <mxGeometry x="890" y="169" width="38" height="38" as="geometry"/>
                </mxCell>
                <mxCell id="HnC8-h_HV1E-MaXea4_x-1" style="edgeStyle=orthogonalEdgeStyle;rounded=0;orthogonalLoop=1;jettySize=auto;html=1;exitX=0.5;exitY=1;exitDx=0;exitDy=0;fontSize=12;" parent="RJmhnvJt7O8vMK1CdAbt-4" source="RJmhnvJt7O8vMK1CdAbt-5" target="RJmhnvJt7O8vMK1CdAbt-5" edge="1">
                    <mxGeometry relative="1" as="geometry"/>
                </mxCell>
                <mxCell id="RJmhnvJt7O8vMK1CdAbt-94" value="" style="edgeStyle=orthogonalEdgeStyle;html=1;endArrow=open;elbow=vertical;startArrow=open;startFill=0;endFill=0;strokeColor=#545B64;rounded=0;fontSize=10;" parent="1" edge="1">
                    <mxGeometry width="100" relative="1" as="geometry">
                        <mxPoint x="273" y="501" as="sourcePoint"/>
                        <mxPoint x="273" y="531" as="targetPoint"/>
                        <Array as="points">
                            <mxPoint x="273" y="511"/>
                            <mxPoint x="273" y="511"/>
                        </Array>
                    </mxGeometry>
                </mxCell>
                <mxCell id="RJmhnvJt7O8vMK1CdAbt-96" value="" style="edgeStyle=orthogonalEdgeStyle;html=1;endArrow=open;elbow=vertical;startArrow=open;startFill=0;endFill=0;strokeColor=#545B64;rounded=0;fontSize=10;exitX=0.75;exitY=1;exitDx=0;exitDy=0;" parent="1" source="RJmhnvJt7O8vMK1CdAbt-24" edge="1">
                    <mxGeometry width="100" relative="1" as="geometry">
                        <mxPoint x="433" y="563" as="sourcePoint"/>
                        <mxPoint x="516" y="520" as="targetPoint"/>
                    </mxGeometry>
                </mxCell>
                <mxCell id="RJmhnvJt7O8vMK1CdAbt-97" value="" style="edgeStyle=orthogonalEdgeStyle;html=1;endArrow=open;elbow=vertical;startArrow=open;startFill=0;endFill=0;strokeColor=#545B64;rounded=0;fontSize=10;exitX=0.75;exitY=1;exitDx=0;exitDy=0;" parent="1" source="RJmhnvJt7O8vMK1CdAbt-25" edge="1">
                    <mxGeometry width="100" relative="1" as="geometry">
                        <mxPoint x="728.5" y="510" as="sourcePoint"/>
                        <mxPoint x="716" y="520" as="targetPoint"/>
                    </mxGeometry>
                </mxCell>
                <mxCell id="RJmhnvJt7O8vMK1CdAbt-258" style="edgeStyle=orthogonalEdgeStyle;rounded=0;orthogonalLoop=1;jettySize=auto;html=1;fontSize=10;" parent="1" source="RJmhnvJt7O8vMK1CdAbt-98" target="RJmhnvJt7O8vMK1CdAbt-256" edge="1">
                    <mxGeometry relative="1" as="geometry"/>
                </mxCell>
                <mxCell id="RJmhnvJt7O8vMK1CdAbt-98" value="&lt;b&gt;Management - VPC.&amp;nbsp; &amp;nbsp;[10.2.0.0/16]&lt;/b&gt;" style="points=[[0,0],[0.25,0],[0.5,0],[0.75,0],[1,0],[1,0.25],[1,0.5],[1,0.75],[1,1],[0.75,1],[0.5,1],[0.25,1],[0,1],[0,0.75],[0,0.5],[0,0.25]];outlineConnect=0;gradientColor=none;html=1;whiteSpace=wrap;fontSize=12;fontStyle=0;container=1;pointerEvents=0;collapsible=0;recursiveResize=0;shape=mxgraph.aws4.group;grIcon=mxgraph.aws4.group_vpc;strokeColor=#248814;fillColor=none;verticalAlign=top;align=left;spacingLeft=30;fontColor=#AAB7B8;dashed=0;" parent="1" vertex="1">
                    <mxGeometry x="81" y="585" width="660" height="405" as="geometry"/>
                </mxCell>
                <mxCell id="RJmhnvJt7O8vMK1CdAbt-99" value="Availability Zone - 1" style="fillColor=none;strokeColor=#147EBA;dashed=1;verticalAlign=top;fontStyle=0;fontColor=#147EBA;" parent="RJmhnvJt7O8vMK1CdAbt-98" vertex="1">
                    <mxGeometry x="56" y="30" width="170" height="350" as="geometry"/>
                </mxCell>
                <mxCell id="RJmhnvJt7O8vMK1CdAbt-101" value="Availability Zone - 2" style="fillColor=none;strokeColor=#147EBA;dashed=1;verticalAlign=top;fontStyle=0;fontColor=#147EBA;" parent="RJmhnvJt7O8vMK1CdAbt-98" vertex="1">
                    <mxGeometry x="256" y="30" width="170" height="350" as="geometry"/>
                </mxCell>
                <mxCell id="RJmhnvJt7O8vMK1CdAbt-102" value="Availability Zone - 3" style="fillColor=none;strokeColor=#147EBA;dashed=1;verticalAlign=top;fontStyle=0;fontColor=#147EBA;" parent="RJmhnvJt7O8vMK1CdAbt-98" vertex="1">
                    <mxGeometry x="456" y="30" width="170" height="350" as="geometry"/>
                </mxCell>
                <mxCell id="RJmhnvJt7O8vMK1CdAbt-108" value="Private subnet&lt;br&gt;[10.2.6.0/24]" style="points=[[0,0],[0.25,0],[0.5,0],[0.75,0],[1,0],[1,0.25],[1,0.5],[1,0.75],[1,1],[0.75,1],[0.5,1],[0.25,1],[0,1],[0,0.75],[0,0.5],[0,0.25]];outlineConnect=0;gradientColor=none;html=1;whiteSpace=wrap;fontSize=12;fontStyle=0;container=1;pointerEvents=0;collapsible=0;recursiveResize=0;shape=mxgraph.aws4.group;grIcon=mxgraph.aws4.group_security_group;grStroke=0;strokeColor=#147EBA;fillColor=#E6F2F8;verticalAlign=top;align=left;spacingLeft=30;fontColor=#147EBA;dashed=0;" parent="RJmhnvJt7O8vMK1CdAbt-98" vertex="1">
                    <mxGeometry x="476" y="240" width="130" height="130" as="geometry"/>
                </mxCell>
                <mxCell id="RJmhnvJt7O8vMK1CdAbt-109" value="Private subnet&lt;br&gt;[10.2.5.0/24]" style="points=[[0,0],[0.25,0],[0.5,0],[0.75,0],[1,0],[1,0.25],[1,0.5],[1,0.75],[1,1],[0.75,1],[0.5,1],[0.25,1],[0,1],[0,0.75],[0,0.5],[0,0.25]];outlineConnect=0;gradientColor=none;html=1;whiteSpace=wrap;fontSize=12;fontStyle=0;container=1;pointerEvents=0;collapsible=0;recursiveResize=0;shape=mxgraph.aws4.group;grIcon=mxgraph.aws4.group_security_group;grStroke=0;strokeColor=#147EBA;fillColor=#E6F2F8;verticalAlign=top;align=left;spacingLeft=30;fontColor=#147EBA;dashed=0;" parent="RJmhnvJt7O8vMK1CdAbt-98" vertex="1">
                    <mxGeometry x="275" y="240" width="131" height="130" as="geometry"/>
                </mxCell>
                <mxCell id="RJmhnvJt7O8vMK1CdAbt-110" value="Private subnet&lt;br&gt;[10.2.4.0/24]" style="points=[[0,0],[0.25,0],[0.5,0],[0.75,0],[1,0],[1,0.25],[1,0.5],[1,0.75],[1,1],[0.75,1],[0.5,1],[0.25,1],[0,1],[0,0.75],[0,0.5],[0,0.25]];outlineConnect=0;gradientColor=none;html=1;whiteSpace=wrap;fontSize=12;fontStyle=0;container=1;pointerEvents=0;collapsible=0;recursiveResize=0;shape=mxgraph.aws4.group;grIcon=mxgraph.aws4.group_security_group;grStroke=0;strokeColor=#147EBA;fillColor=#E6F2F8;verticalAlign=top;align=left;spacingLeft=30;fontColor=#147EBA;dashed=0;" parent="RJmhnvJt7O8vMK1CdAbt-98" vertex="1">
                    <mxGeometry x="76" y="240" width="130" height="130" as="geometry"/>
                </mxCell>
                <mxCell id="RJmhnvJt7O8vMK1CdAbt-111" value="&lt;font style=&quot;font-size: 12px&quot;&gt;Instance&lt;/font&gt;" style="sketch=0;points=[[0,0,0],[0.25,0,0],[0.5,0,0],[0.75,0,0],[1,0,0],[0,1,0],[0.25,1,0],[0.5,1,0],[0.75,1,0],[1,1,0],[0,0.25,0],[0,0.5,0],[0,0.75,0],[1,0.25,0],[1,0.5,0],[1,0.75,0]];outlineConnect=0;fontColor=#232F3E;gradientColor=#F78E04;gradientDirection=north;fillColor=#D05C17;strokeColor=#ffffff;dashed=0;verticalLabelPosition=bottom;verticalAlign=top;align=center;html=1;fontSize=12;fontStyle=0;aspect=fixed;shape=mxgraph.aws4.resourceIcon;resIcon=mxgraph.aws4.ec2;" parent="RJmhnvJt7O8vMK1CdAbt-110" vertex="1">
                    <mxGeometry x="46" y="55" width="38" height="38" as="geometry"/>
                </mxCell>
                <mxCell id="RJmhnvJt7O8vMK1CdAbt-114" value="&lt;font style=&quot;font-size: 12px&quot;&gt;Instance&lt;/font&gt;" style="sketch=0;points=[[0,0,0],[0.25,0,0],[0.5,0,0],[0.75,0,0],[1,0,0],[0,1,0],[0.25,1,0],[0.5,1,0],[0.75,1,0],[1,1,0],[0,0.25,0],[0,0.5,0],[0,0.75,0],[1,0.25,0],[1,0.5,0],[1,0.75,0]];outlineConnect=0;fontColor=#232F3E;gradientColor=#F78E04;gradientDirection=north;fillColor=#D05C17;strokeColor=#ffffff;dashed=0;verticalLabelPosition=bottom;verticalAlign=top;align=center;html=1;fontSize=12;fontStyle=0;aspect=fixed;shape=mxgraph.aws4.resourceIcon;resIcon=mxgraph.aws4.ec2;" parent="RJmhnvJt7O8vMK1CdAbt-98" vertex="1">
                    <mxGeometry x="321" y="301" width="38" height="38" as="geometry"/>
                </mxCell>
                <mxCell id="RJmhnvJt7O8vMK1CdAbt-115" value="&lt;font style=&quot;font-size: 12px&quot;&gt;Instance&lt;/font&gt;" style="sketch=0;points=[[0,0,0],[0.25,0,0],[0.5,0,0],[0.75,0,0],[1,0,0],[0,1,0],[0.25,1,0],[0.5,1,0],[0.75,1,0],[1,1,0],[0,0.25,0],[0,0.5,0],[0,0.75,0],[1,0.25,0],[1,0.5,0],[1,0.75,0]];outlineConnect=0;fontColor=#232F3E;gradientColor=#F78E04;gradientDirection=north;fillColor=#D05C17;strokeColor=#ffffff;dashed=0;verticalLabelPosition=bottom;verticalAlign=top;align=center;html=1;fontSize=12;fontStyle=0;aspect=fixed;shape=mxgraph.aws4.resourceIcon;resIcon=mxgraph.aws4.ec2;" parent="RJmhnvJt7O8vMK1CdAbt-98" vertex="1">
                    <mxGeometry x="522" y="298" width="38" height="38" as="geometry"/>
                </mxCell>
                <mxCell id="RJmhnvJt7O8vMK1CdAbt-116" value="Security group" style="fillColor=none;strokeColor=#DD3522;verticalAlign=top;fontStyle=0;fontColor=#DD3522;" parent="RJmhnvJt7O8vMK1CdAbt-98" vertex="1">
                    <mxGeometry x="86" y="278" width="510" height="84" as="geometry"/>
                </mxCell>
                <mxCell id="RJmhnvJt7O8vMK1CdAbt-261" style="edgeStyle=orthogonalEdgeStyle;rounded=0;orthogonalLoop=1;jettySize=auto;html=1;entryX=0.135;entryY=0.843;entryDx=0;entryDy=0;entryPerimeter=0;fontSize=10;" parent="RJmhnvJt7O8vMK1CdAbt-98" source="RJmhnvJt7O8vMK1CdAbt-171" target="RJmhnvJt7O8vMK1CdAbt-99" edge="1">
                    <mxGeometry relative="1" as="geometry">
                        <Array as="points">
                            <mxPoint x="59" y="209"/>
                            <mxPoint x="59" y="325"/>
                        </Array>
                    </mxGeometry>
                </mxCell>
                <mxCell id="RJmhnvJt7O8vMK1CdAbt-171" value="&lt;font style=&quot;font-size: 10px&quot;&gt;Route&lt;/font&gt;" style="sketch=0;outlineConnect=0;fontColor=#232F3E;gradientColor=none;fillColor=#4D27AA;strokeColor=none;dashed=0;verticalLabelPosition=bottom;verticalAlign=top;align=center;html=1;fontSize=12;fontStyle=0;aspect=fixed;pointerEvents=1;shape=mxgraph.aws4.router;" parent="RJmhnvJt7O8vMK1CdAbt-98" vertex="1">
                    <mxGeometry x="19" y="195" width="28" height="28" as="geometry"/>
                </mxCell>
                <mxCell id="RJmhnvJt7O8vMK1CdAbt-119" value="&lt;font style=&quot;font-size: 10px&quot;&gt;NACL&lt;/font&gt;" style="sketch=0;outlineConnect=0;fontColor=#232F3E;gradientColor=none;fillColor=#4D27AA;strokeColor=none;dashed=0;verticalLabelPosition=bottom;verticalAlign=top;align=center;html=1;fontSize=12;fontStyle=0;aspect=fixed;pointerEvents=1;shape=mxgraph.aws4.network_access_control_list;" parent="1" vertex="1">
                    <mxGeometry x="719" y="792" width="40" height="40" as="geometry"/>
                </mxCell>
                <mxCell id="RJmhnvJt7O8vMK1CdAbt-260" style="edgeStyle=orthogonalEdgeStyle;rounded=0;orthogonalLoop=1;jettySize=auto;html=1;exitX=1;exitY=0.25;exitDx=0;exitDy=0;fontSize=10;" parent="1" source="RJmhnvJt7O8vMK1CdAbt-131" target="RJmhnvJt7O8vMK1CdAbt-256" edge="1">
                    <mxGeometry relative="1" as="geometry">
                        <Array as="points">
                            <mxPoint x="900" y="1130"/>
                            <mxPoint x="900" y="584"/>
                        </Array>
                    </mxGeometry>
                </mxCell>
                <mxCell id="RJmhnvJt7O8vMK1CdAbt-131" value="&lt;b&gt;Worker - VPC.&amp;nbsp; &amp;nbsp;[10.3.0.0/16]&lt;/b&gt;" style="points=[[0,0],[0.25,0],[0.5,0],[0.75,0],[1,0],[1,0.25],[1,0.5],[1,0.75],[1,1],[0.75,1],[0.5,1],[0.25,1],[0,1],[0,0.75],[0,0.5],[0,0.25]];outlineConnect=0;gradientColor=none;html=1;whiteSpace=wrap;fontSize=12;fontStyle=0;container=1;pointerEvents=0;collapsible=0;recursiveResize=0;shape=mxgraph.aws4.group;grIcon=mxgraph.aws4.group_vpc;strokeColor=#248814;fillColor=none;verticalAlign=top;align=left;spacingLeft=30;fontColor=#AAB7B8;dashed=0;" parent="1" vertex="1">
                    <mxGeometry x="82" y="1028" width="660" height="412" as="geometry"/>
                </mxCell>
                <mxCell id="RJmhnvJt7O8vMK1CdAbt-132" value="Availability Zone - 1" style="fillColor=none;strokeColor=#147EBA;dashed=1;verticalAlign=top;fontStyle=0;fontColor=#147EBA;" parent="RJmhnvJt7O8vMK1CdAbt-131" vertex="1">
                    <mxGeometry x="56" y="30" width="170" height="350" as="geometry"/>
                </mxCell>
                <mxCell id="RJmhnvJt7O8vMK1CdAbt-134" value="Availability Zone - 2" style="fillColor=none;strokeColor=#147EBA;dashed=1;verticalAlign=top;fontStyle=0;fontColor=#147EBA;" parent="RJmhnvJt7O8vMK1CdAbt-131" vertex="1">
                    <mxGeometry x="256" y="30" width="170" height="350" as="geometry"/>
                </mxCell>
                <mxCell id="RJmhnvJt7O8vMK1CdAbt-135" value="Availability Zone - 3" style="fillColor=none;strokeColor=#147EBA;dashed=1;verticalAlign=top;fontStyle=0;fontColor=#147EBA;" parent="RJmhnvJt7O8vMK1CdAbt-131" vertex="1">
                    <mxGeometry x="456" y="30" width="170" height="350" as="geometry"/>
                </mxCell>
                <mxCell id="RJmhnvJt7O8vMK1CdAbt-141" value="Private subnet&lt;br&gt;[10.3.6.0/24]" style="points=[[0,0],[0.25,0],[0.5,0],[0.75,0],[1,0],[1,0.25],[1,0.5],[1,0.75],[1,1],[0.75,1],[0.5,1],[0.25,1],[0,1],[0,0.75],[0,0.5],[0,0.25]];outlineConnect=0;gradientColor=none;html=1;whiteSpace=wrap;fontSize=12;fontStyle=0;container=1;pointerEvents=0;collapsible=0;recursiveResize=0;shape=mxgraph.aws4.group;grIcon=mxgraph.aws4.group_security_group;grStroke=0;strokeColor=#147EBA;fillColor=#E6F2F8;verticalAlign=top;align=left;spacingLeft=30;fontColor=#147EBA;dashed=0;" parent="RJmhnvJt7O8vMK1CdAbt-131" vertex="1">
                    <mxGeometry x="476" y="240" width="130" height="130" as="geometry"/>
                </mxCell>
                <mxCell id="RJmhnvJt7O8vMK1CdAbt-142" value="Private subnet&lt;br&gt;[10.3.5.0/24]" style="points=[[0,0],[0.25,0],[0.5,0],[0.75,0],[1,0],[1,0.25],[1,0.5],[1,0.75],[1,1],[0.75,1],[0.5,1],[0.25,1],[0,1],[0,0.75],[0,0.5],[0,0.25]];outlineConnect=0;gradientColor=none;html=1;whiteSpace=wrap;fontSize=12;fontStyle=0;container=1;pointerEvents=0;collapsible=0;recursiveResize=0;shape=mxgraph.aws4.group;grIcon=mxgraph.aws4.group_security_group;grStroke=0;strokeColor=#147EBA;fillColor=#E6F2F8;verticalAlign=top;align=left;spacingLeft=30;fontColor=#147EBA;dashed=0;" parent="RJmhnvJt7O8vMK1CdAbt-131" vertex="1">
                    <mxGeometry x="275" y="240" width="131" height="130" as="geometry"/>
                </mxCell>
                <mxCell id="RJmhnvJt7O8vMK1CdAbt-147" value="&lt;font style=&quot;font-size: 12px&quot;&gt;Instance&lt;/font&gt;" style="sketch=0;points=[[0,0,0],[0.25,0,0],[0.5,0,0],[0.75,0,0],[1,0,0],[0,1,0],[0.25,1,0],[0.5,1,0],[0.75,1,0],[1,1,0],[0,0.25,0],[0,0.5,0],[0,0.75,0],[1,0.25,0],[1,0.5,0],[1,0.75,0]];outlineConnect=0;fontColor=#232F3E;gradientColor=#F78E04;gradientDirection=north;fillColor=#D05C17;strokeColor=#ffffff;dashed=0;verticalLabelPosition=bottom;verticalAlign=top;align=center;html=1;fontSize=12;fontStyle=0;aspect=fixed;shape=mxgraph.aws4.resourceIcon;resIcon=mxgraph.aws4.ec2;" parent="RJmhnvJt7O8vMK1CdAbt-131" vertex="1">
                    <mxGeometry x="321" y="301" width="38" height="38" as="geometry"/>
                </mxCell>
                <mxCell id="RJmhnvJt7O8vMK1CdAbt-148" value="&lt;font style=&quot;font-size: 12px&quot;&gt;Instance&lt;/font&gt;" style="sketch=0;points=[[0,0,0],[0.25,0,0],[0.5,0,0],[0.75,0,0],[1,0,0],[0,1,0],[0.25,1,0],[0.5,1,0],[0.75,1,0],[1,1,0],[0,0.25,0],[0,0.5,0],[0,0.75,0],[1,0.25,0],[1,0.5,0],[1,0.75,0]];outlineConnect=0;fontColor=#232F3E;gradientColor=#F78E04;gradientDirection=north;fillColor=#D05C17;strokeColor=#ffffff;dashed=0;verticalLabelPosition=bottom;verticalAlign=top;align=center;html=1;fontSize=12;fontStyle=0;aspect=fixed;shape=mxgraph.aws4.resourceIcon;resIcon=mxgraph.aws4.ec2;" parent="RJmhnvJt7O8vMK1CdAbt-131" vertex="1">
                    <mxGeometry x="522" y="298" width="38" height="38" as="geometry"/>
                </mxCell>
                <mxCell id="RJmhnvJt7O8vMK1CdAbt-149" value="Security group" style="fillColor=none;strokeColor=#DD3522;verticalAlign=top;fontStyle=0;fontColor=#DD3522;" parent="RJmhnvJt7O8vMK1CdAbt-131" vertex="1">
                    <mxGeometry x="240" y="278" width="356" height="84" as="geometry"/>
                </mxCell>
                <mxCell id="RJmhnvJt7O8vMK1CdAbt-172" value="Private subnet&lt;br&gt;[10.3.3.0/24]" style="points=[[0,0],[0.25,0],[0.5,0],[0.75,0],[1,0],[1,0.25],[1,0.5],[1,0.75],[1,1],[0.75,1],[0.5,1],[0.25,1],[0,1],[0,0.75],[0,0.5],[0,0.25]];outlineConnect=0;gradientColor=none;html=1;whiteSpace=wrap;fontSize=12;fontStyle=0;container=1;pointerEvents=0;collapsible=0;recursiveResize=0;shape=mxgraph.aws4.group;grIcon=mxgraph.aws4.group_security_group;grStroke=0;strokeColor=#147EBA;fillColor=#E6F2F8;verticalAlign=top;align=left;spacingLeft=30;fontColor=#147EBA;dashed=0;" parent="RJmhnvJt7O8vMK1CdAbt-131" vertex="1">
                    <mxGeometry x="476" y="69" width="130" height="130" as="geometry"/>
                </mxCell>
                <mxCell id="RJmhnvJt7O8vMK1CdAbt-173" value="Private subnet&lt;br&gt;[10.3.2.0/24]" style="points=[[0,0],[0.25,0],[0.5,0],[0.75,0],[1,0],[1,0.25],[1,0.5],[1,0.75],[1,1],[0.75,1],[0.5,1],[0.25,1],[0,1],[0,0.75],[0,0.5],[0,0.25]];outlineConnect=0;gradientColor=none;html=1;whiteSpace=wrap;fontSize=12;fontStyle=0;container=1;pointerEvents=0;collapsible=0;recursiveResize=0;shape=mxgraph.aws4.group;grIcon=mxgraph.aws4.group_security_group;grStroke=0;strokeColor=#147EBA;fillColor=#E6F2F8;verticalAlign=top;align=left;spacingLeft=30;fontColor=#147EBA;dashed=0;" parent="RJmhnvJt7O8vMK1CdAbt-131" vertex="1">
                    <mxGeometry x="275" y="69" width="131" height="130" as="geometry"/>
                </mxCell>
                <mxCell id="RJmhnvJt7O8vMK1CdAbt-174" value="Private subnet&lt;br&gt;[10.3.1.0/24]" style="points=[[0,0],[0.25,0],[0.5,0],[0.75,0],[1,0],[1,0.25],[1,0.5],[1,0.75],[1,1],[0.75,1],[0.5,1],[0.25,1],[0,1],[0,0.75],[0,0.5],[0,0.25]];outlineConnect=0;gradientColor=none;html=1;whiteSpace=wrap;fontSize=12;fontStyle=0;container=1;pointerEvents=0;collapsible=0;recursiveResize=0;shape=mxgraph.aws4.group;grIcon=mxgraph.aws4.group_security_group;grStroke=0;strokeColor=#147EBA;fillColor=#E6F2F8;verticalAlign=top;align=left;spacingLeft=30;fontColor=#147EBA;dashed=0;" parent="RJmhnvJt7O8vMK1CdAbt-131" vertex="1">
                    <mxGeometry x="76" y="69" width="130" height="130" as="geometry"/>
                </mxCell>
                <mxCell id="RJmhnvJt7O8vMK1CdAbt-191" value="" style="edgeStyle=orthogonalEdgeStyle;html=1;endArrow=open;elbow=vertical;startArrow=open;startFill=0;endFill=0;strokeColor=#545B64;rounded=0;fontSize=10;" parent="RJmhnvJt7O8vMK1CdAbt-131" source="RJmhnvJt7O8vMK1CdAbt-142" edge="1">
                    <mxGeometry width="100" relative="1" as="geometry">
                        <mxPoint x="198" y="208" as="sourcePoint"/>
                        <mxPoint x="341" y="199" as="targetPoint"/>
                    </mxGeometry>
                </mxCell>
                <mxCell id="RJmhnvJt7O8vMK1CdAbt-178" value="Security group" style="fillColor=none;strokeColor=#DD3522;verticalAlign=top;fontStyle=0;fontColor=#DD3522;" parent="RJmhnvJt7O8vMK1CdAbt-131" vertex="1">
                    <mxGeometry x="86" y="107" width="510" height="84" as="geometry"/>
                </mxCell>
                <mxCell id="RJmhnvJt7O8vMK1CdAbt-197" value="&lt;font style=&quot;font-size: 10px&quot;&gt;ROSA&lt;/font&gt;" style="sketch=0;points=[[0,0,0],[0.25,0,0],[0.5,0,0],[0.75,0,0],[1,0,0],[0,1,0],[0.25,1,0],[0.5,1,0],[0.75,1,0],[1,1,0],[0,0.25,0],[0,0.5,0],[0,0.75,0],[1,0.25,0],[1,0.5,0],[1,0.75,0]];outlineConnect=0;fontColor=#232F3E;gradientColor=#F78E04;gradientDirection=north;fillColor=#D05C17;strokeColor=#ffffff;dashed=0;verticalLabelPosition=bottom;verticalAlign=top;align=center;html=1;fontSize=12;fontStyle=1;aspect=fixed;shape=mxgraph.aws4.resourceIcon;resIcon=mxgraph.aws4.red_hat_openshift;" parent="RJmhnvJt7O8vMK1CdAbt-131" vertex="1">
                    <mxGeometry x="122" y="130" width="38" height="38" as="geometry"/>
                </mxCell>
                <mxCell id="RJmhnvJt7O8vMK1CdAbt-196" value="&lt;font style=&quot;font-size: 10px&quot;&gt;ROSA&lt;/font&gt;" style="sketch=0;points=[[0,0,0],[0.25,0,0],[0.5,0,0],[0.75,0,0],[1,0,0],[0,1,0],[0.25,1,0],[0.5,1,0],[0.75,1,0],[1,1,0],[0,0.25,0],[0,0.5,0],[0,0.75,0],[1,0.25,0],[1,0.5,0],[1,0.75,0]];outlineConnect=0;fontColor=#232F3E;gradientColor=#F78E04;gradientDirection=north;fillColor=#D05C17;strokeColor=#ffffff;dashed=0;verticalLabelPosition=bottom;verticalAlign=top;align=center;html=1;fontSize=12;fontStyle=0;aspect=fixed;shape=mxgraph.aws4.resourceIcon;resIcon=mxgraph.aws4.red_hat_openshift;" parent="RJmhnvJt7O8vMK1CdAbt-131" vertex="1">
                    <mxGeometry x="322" y="130" width="38" height="38" as="geometry"/>
                </mxCell>
                <mxCell id="RJmhnvJt7O8vMK1CdAbt-193" value="&lt;font style=&quot;font-size: 10px&quot;&gt;ROSA&lt;/font&gt;" style="sketch=0;points=[[0,0,0],[0.25,0,0],[0.5,0,0],[0.75,0,0],[1,0,0],[0,1,0],[0.25,1,0],[0.5,1,0],[0.75,1,0],[1,1,0],[0,0.25,0],[0,0.5,0],[0,0.75,0],[1,0.25,0],[1,0.5,0],[1,0.75,0]];outlineConnect=0;fontColor=#232F3E;gradientColor=#F78E04;gradientDirection=north;fillColor=#D05C17;strokeColor=#ffffff;dashed=0;verticalLabelPosition=bottom;verticalAlign=top;align=center;html=1;fontSize=12;fontStyle=0;aspect=fixed;shape=mxgraph.aws4.resourceIcon;resIcon=mxgraph.aws4.red_hat_openshift;" parent="RJmhnvJt7O8vMK1CdAbt-131" vertex="1">
                    <mxGeometry x="522" y="130" width="38" height="38" as="geometry"/>
                </mxCell>
                <mxCell id="RJmhnvJt7O8vMK1CdAbt-199" value="" style="edgeStyle=orthogonalEdgeStyle;html=1;endArrow=open;elbow=vertical;startArrow=open;startFill=0;endFill=0;strokeColor=#545B64;rounded=0;fontSize=10;exitX=0.89;exitY=1.014;exitDx=0;exitDy=0;exitPerimeter=0;" parent="RJmhnvJt7O8vMK1CdAbt-131" source="RJmhnvJt7O8vMK1CdAbt-178" target="RJmhnvJt7O8vMK1CdAbt-141" edge="1">
                    <mxGeometry width="100" relative="1" as="geometry">
                        <mxPoint x="493" y="218" as="sourcePoint"/>
                        <mxPoint x="593" y="218" as="targetPoint"/>
                    </mxGeometry>
                </mxCell>
                <mxCell id="RJmhnvJt7O8vMK1CdAbt-190" value="" style="edgeStyle=orthogonalEdgeStyle;html=1;endArrow=open;elbow=vertical;startArrow=open;startFill=0;endFill=0;strokeColor=#545B64;rounded=0;fontSize=10;entryX=0.718;entryY=0.597;entryDx=0;entryDy=0;entryPerimeter=0;exitX=0.177;exitY=1.025;exitDx=0;exitDy=0;exitPerimeter=0;" parent="RJmhnvJt7O8vMK1CdAbt-131" source="RJmhnvJt7O8vMK1CdAbt-178" target="RJmhnvJt7O8vMK1CdAbt-132" edge="1">
                    <mxGeometry width="100" relative="1" as="geometry">
                        <mxPoint x="178" y="219" as="sourcePoint"/>
                        <mxPoint x="286" y="231" as="targetPoint"/>
                        <Array as="points">
                            <mxPoint x="176" y="219"/>
                            <mxPoint x="178" y="219"/>
                        </Array>
                    </mxGeometry>
                </mxCell>
                <mxCell id="RJmhnvJt7O8vMK1CdAbt-247" value="Public subnet&lt;br&gt;[10.1.3.0/24]" style="points=[[0,0],[0.25,0],[0.5,0],[0.75,0],[1,0],[1,0.25],[1,0.5],[1,0.75],[1,1],[0.75,1],[0.5,1],[0.25,1],[0,1],[0,0.75],[0,0.5],[0,0.25]];outlineConnect=0;gradientColor=none;html=1;whiteSpace=wrap;fontSize=12;fontStyle=0;container=1;pointerEvents=0;collapsible=0;recursiveResize=0;shape=mxgraph.aws4.group;grIcon=mxgraph.aws4.group_security_group;grStroke=0;strokeColor=#248814;fillColor=#E9F3E6;verticalAlign=top;align=left;spacingLeft=30;fontColor=#248814;dashed=0;" parent="RJmhnvJt7O8vMK1CdAbt-131" vertex="1">
                    <mxGeometry x="76" y="240" width="130" height="135" as="geometry"/>
                </mxCell>
                <mxCell id="RJmhnvJt7O8vMK1CdAbt-250" value="Security group" style="fillColor=none;strokeColor=#DD3522;verticalAlign=top;fontStyle=0;fontColor=#DD3522;" parent="RJmhnvJt7O8vMK1CdAbt-131" vertex="1">
                    <mxGeometry x="62" y="286" width="156" height="84" as="geometry"/>
                </mxCell>
                <mxCell id="RJmhnvJt7O8vMK1CdAbt-253" style="edgeStyle=orthogonalEdgeStyle;rounded=0;orthogonalLoop=1;jettySize=auto;html=1;entryX=0;entryY=0.75;entryDx=0;entryDy=0;fontSize=10;" parent="RJmhnvJt7O8vMK1CdAbt-131" source="RJmhnvJt7O8vMK1CdAbt-150" target="RJmhnvJt7O8vMK1CdAbt-178" edge="1">
                    <mxGeometry relative="1" as="geometry">
                        <Array as="points">
                            <mxPoint x="68" y="226"/>
                            <mxPoint x="68" y="192"/>
                            <mxPoint x="66" y="192"/>
                            <mxPoint x="66" y="170"/>
                        </Array>
                    </mxGeometry>
                </mxCell>
                <mxCell id="RJmhnvJt7O8vMK1CdAbt-254" style="edgeStyle=orthogonalEdgeStyle;rounded=0;orthogonalLoop=1;jettySize=auto;html=1;entryX=0;entryY=0.25;entryDx=0;entryDy=0;fontSize=10;" parent="RJmhnvJt7O8vMK1CdAbt-131" source="RJmhnvJt7O8vMK1CdAbt-150" target="RJmhnvJt7O8vMK1CdAbt-250" edge="1">
                    <mxGeometry relative="1" as="geometry"/>
                </mxCell>
                <mxCell id="RJmhnvJt7O8vMK1CdAbt-150" value="&lt;font style=&quot;font-size: 10px&quot;&gt;Route&lt;/font&gt;" style="sketch=0;outlineConnect=0;fontColor=#232F3E;gradientColor=none;fillColor=#4D27AA;strokeColor=none;dashed=0;verticalLabelPosition=bottom;verticalAlign=top;align=center;html=1;fontSize=12;fontStyle=0;aspect=fixed;pointerEvents=1;shape=mxgraph.aws4.router;" parent="RJmhnvJt7O8vMK1CdAbt-131" vertex="1">
                    <mxGeometry x="34" y="212" width="28" height="28" as="geometry"/>
                </mxCell>
                <mxCell id="RJmhnvJt7O8vMK1CdAbt-152" value="&lt;font style=&quot;font-size: 10px&quot;&gt;NACL&lt;/font&gt;" style="sketch=0;outlineConnect=0;fontColor=#232F3E;gradientColor=none;fillColor=#4D27AA;strokeColor=none;dashed=0;verticalLabelPosition=bottom;verticalAlign=top;align=center;html=1;fontSize=12;fontStyle=0;aspect=fixed;pointerEvents=1;shape=mxgraph.aws4.network_access_control_list;" parent="1" vertex="1">
                    <mxGeometry x="721" y="1219" width="40" height="40" as="geometry"/>
                </mxCell>
                <mxCell id="RJmhnvJt7O8vMK1CdAbt-164" value="Private subnet&lt;br&gt;[10.2.3.0/24]" style="points=[[0,0],[0.25,0],[0.5,0],[0.75,0],[1,0],[1,0.25],[1,0.5],[1,0.75],[1,1],[0.75,1],[0.5,1],[0.25,1],[0,1],[0,0.75],[0,0.5],[0,0.25]];outlineConnect=0;gradientColor=none;html=1;whiteSpace=wrap;fontSize=12;fontStyle=0;container=1;pointerEvents=0;collapsible=0;recursiveResize=0;shape=mxgraph.aws4.group;grIcon=mxgraph.aws4.group_security_group;grStroke=0;strokeColor=#147EBA;fillColor=#E6F2F8;verticalAlign=top;align=left;spacingLeft=30;fontColor=#147EBA;dashed=0;" parent="1" vertex="1">
                    <mxGeometry x="562" y="662" width="130" height="130" as="geometry"/>
                </mxCell>
                <mxCell id="RJmhnvJt7O8vMK1CdAbt-165" value="Private subnet&lt;br&gt;[10.2.2.0/24]" style="points=[[0,0],[0.25,0],[0.5,0],[0.75,0],[1,0],[1,0.25],[1,0.5],[1,0.75],[1,1],[0.75,1],[0.5,1],[0.25,1],[0,1],[0,0.75],[0,0.5],[0,0.25]];outlineConnect=0;gradientColor=none;html=1;whiteSpace=wrap;fontSize=12;fontStyle=0;container=1;pointerEvents=0;collapsible=0;recursiveResize=0;shape=mxgraph.aws4.group;grIcon=mxgraph.aws4.group_security_group;grStroke=0;strokeColor=#147EBA;fillColor=#E6F2F8;verticalAlign=top;align=left;spacingLeft=30;fontColor=#147EBA;dashed=0;" parent="1" vertex="1">
                    <mxGeometry x="361" y="662" width="131" height="130" as="geometry"/>
                </mxCell>
                <mxCell id="RJmhnvJt7O8vMK1CdAbt-166" value="Private subnet&lt;br&gt;[10.2.1.0/24]" style="points=[[0,0],[0.25,0],[0.5,0],[0.75,0],[1,0],[1,0.25],[1,0.5],[1,0.75],[1,1],[0.75,1],[0.5,1],[0.25,1],[0,1],[0,0.75],[0,0.5],[0,0.25]];outlineConnect=0;gradientColor=none;html=1;whiteSpace=wrap;fontSize=12;fontStyle=0;container=1;pointerEvents=0;collapsible=0;recursiveResize=0;shape=mxgraph.aws4.group;grIcon=mxgraph.aws4.group_security_group;grStroke=0;strokeColor=#147EBA;fillColor=#E6F2F8;verticalAlign=top;align=left;spacingLeft=30;fontColor=#147EBA;dashed=0;" parent="1" vertex="1">
                    <mxGeometry x="162" y="662" width="130" height="130" as="geometry"/>
                </mxCell>
                <mxCell id="RJmhnvJt7O8vMK1CdAbt-180" value="" style="edgeStyle=orthogonalEdgeStyle;html=1;endArrow=open;elbow=vertical;startArrow=open;startFill=0;endFill=0;strokeColor=#545B64;rounded=0;fontSize=10;exitX=0.75;exitY=1;exitDx=0;exitDy=0;" parent="1" edge="1">
                    <mxGeometry width="100" relative="1" as="geometry">
                        <mxPoint x="296.5" y="310" as="sourcePoint"/>
                        <mxPoint x="754.0004545351244" y="306" as="targetPoint"/>
                        <Array as="points">
                            <mxPoint x="297" y="330"/>
                            <mxPoint x="740" y="330"/>
                            <mxPoint x="740" y="306"/>
                        </Array>
                    </mxGeometry>
                </mxCell>
                <mxCell id="RJmhnvJt7O8vMK1CdAbt-182" value="" style="edgeStyle=orthogonalEdgeStyle;html=1;endArrow=open;elbow=vertical;startArrow=open;startFill=0;endFill=0;strokeColor=#545B64;rounded=0;fontSize=10;exitX=0.59;exitY=1.029;exitDx=0;exitDy=0;exitPerimeter=0;" parent="1" source="RJmhnvJt7O8vMK1CdAbt-7" edge="1">
                    <mxGeometry width="100" relative="1" as="geometry">
                        <mxPoint x="420" y="319" as="sourcePoint"/>
                        <mxPoint x="490" y="330" as="targetPoint"/>
                        <Array as="points">
                            <mxPoint x="489" y="319"/>
                        </Array>
                    </mxGeometry>
                </mxCell>
                <mxCell id="RJmhnvJt7O8vMK1CdAbt-183" value="" style="edgeStyle=orthogonalEdgeStyle;html=1;endArrow=open;elbow=vertical;startArrow=open;startFill=0;endFill=0;strokeColor=#545B64;rounded=0;fontSize=10;exitX=0.59;exitY=1.029;exitDx=0;exitDy=0;exitPerimeter=0;" parent="1" edge="1">
                    <mxGeometry width="100" relative="1" as="geometry">
                        <mxPoint x="678.9000000000001" y="306.43600000000004" as="sourcePoint"/>
                        <mxPoint x="680" y="330" as="targetPoint"/>
                        <Array as="points">
                            <mxPoint x="679" y="319"/>
                        </Array>
                    </mxGeometry>
                </mxCell>
                <mxCell id="RJmhnvJt7O8vMK1CdAbt-184" value="" style="edgeStyle=orthogonalEdgeStyle;html=1;endArrow=block;elbow=vertical;startArrow=block;startFill=1;endFill=1;strokeColor=#545B64;rounded=0;fontSize=10;exitX=0.488;exitY=0.5;exitDx=0;exitDy=0;exitPerimeter=0;" parent="1" edge="1">
                    <mxGeometry width="100" relative="1" as="geometry">
                        <mxPoint x="219.96000000000004" y="785" as="sourcePoint"/>
                        <mxPoint x="720.0004545351239" y="805" as="targetPoint"/>
                        <Array as="points">
                            <mxPoint x="220" y="805"/>
                        </Array>
                    </mxGeometry>
                </mxCell>
                <mxCell id="RJmhnvJt7O8vMK1CdAbt-185" value="" style="edgeStyle=orthogonalEdgeStyle;html=1;endArrow=block;elbow=vertical;startArrow=block;startFill=1;endFill=1;strokeColor=#545B64;rounded=0;fontSize=10;entryX=0.489;entryY=0.038;entryDx=0;entryDy=0;entryPerimeter=0;exitX=0.481;exitY=1.041;exitDx=0;exitDy=0;exitPerimeter=0;" parent="1" source="RJmhnvJt7O8vMK1CdAbt-170" target="RJmhnvJt7O8vMK1CdAbt-109" edge="1">
                    <mxGeometry width="100" relative="1" as="geometry">
                        <mxPoint x="313" y="817" as="sourcePoint"/>
                        <mxPoint x="413" y="817" as="targetPoint"/>
                    </mxGeometry>
                </mxCell>
                <mxCell id="RJmhnvJt7O8vMK1CdAbt-187" value="" style="edgeStyle=orthogonalEdgeStyle;html=1;endArrow=block;elbow=vertical;startArrow=block;startFill=1;endFill=1;strokeColor=#545B64;rounded=0;fontSize=10;entryX=0.86;entryY=1.029;entryDx=0;entryDy=0;entryPerimeter=0;" parent="1" source="RJmhnvJt7O8vMK1CdAbt-108" target="RJmhnvJt7O8vMK1CdAbt-170" edge="1">
                    <mxGeometry width="100" relative="1" as="geometry">
                        <mxPoint x="547" y="800" as="sourcePoint"/>
                        <mxPoint x="647" y="800" as="targetPoint"/>
                    </mxGeometry>
                </mxCell>
                <mxCell id="RJmhnvJt7O8vMK1CdAbt-188" value="" style="edgeStyle=orthogonalEdgeStyle;html=1;endArrow=openThin;elbow=vertical;startArrow=none;endFill=0;strokeColor=#545B64;rounded=0;fontSize=10;entryX=0.665;entryY=0.614;entryDx=0;entryDy=0;entryPerimeter=0;" parent="1" edge="1">
                    <mxGeometry width="100" relative="1" as="geometry">
                        <mxPoint x="250" y="806" as="sourcePoint"/>
                        <mxPoint x="250.04999999999973" y="825.8999999999999" as="targetPoint"/>
                    </mxGeometry>
                </mxCell>
                <mxCell id="RJmhnvJt7O8vMK1CdAbt-189" value="" style="edgeStyle=orthogonalEdgeStyle;html=1;endArrow=open;elbow=vertical;startArrow=open;startFill=0;endFill=0;strokeColor=#545B64;rounded=0;fontSize=10;exitX=0.104;exitY=1.014;exitDx=0;exitDy=0;exitPerimeter=0;" parent="1" source="RJmhnvJt7O8vMK1CdAbt-178" target="RJmhnvJt7O8vMK1CdAbt-152" edge="1">
                    <mxGeometry width="100" relative="1" as="geometry">
                        <mxPoint x="280" y="1240" as="sourcePoint"/>
                        <mxPoint x="380" y="1240" as="targetPoint"/>
                        <Array as="points">
                            <mxPoint x="221" y="1240"/>
                        </Array>
                    </mxGeometry>
                </mxCell>
                <mxCell id="RJmhnvJt7O8vMK1CdAbt-170" value="Security group" style="fillColor=none;strokeColor=#DD3522;verticalAlign=top;fontStyle=0;fontColor=#DD3522;" parent="1" vertex="1">
                    <mxGeometry x="172" y="700" width="510" height="84" as="geometry"/>
                </mxCell>
                <mxCell id="RJmhnvJt7O8vMK1CdAbt-194" value="&lt;font style=&quot;font-size: 10px&quot;&gt;ROSA&lt;/font&gt;" style="sketch=0;points=[[0,0,0],[0.25,0,0],[0.5,0,0],[0.75,0,0],[1,0,0],[0,1,0],[0.25,1,0],[0.5,1,0],[0.75,1,0],[1,1,0],[0,0.25,0],[0,0.5,0],[0,0.75,0],[1,0.25,0],[1,0.5,0],[1,0.75,0]];outlineConnect=0;fontColor=#232F3E;gradientColor=#F78E04;gradientDirection=north;fillColor=#D05C17;strokeColor=#ffffff;dashed=0;verticalLabelPosition=bottom;verticalAlign=top;align=center;html=1;fontSize=12;fontStyle=0;aspect=fixed;shape=mxgraph.aws4.resourceIcon;resIcon=mxgraph.aws4.red_hat_openshift;" parent="1" vertex="1">
                    <mxGeometry x="400" y="723" width="38" height="38" as="geometry"/>
                </mxCell>
                <mxCell id="RJmhnvJt7O8vMK1CdAbt-195" value="&lt;font style=&quot;font-size: 10px&quot;&gt;ROSA&lt;/font&gt;" style="sketch=0;points=[[0,0,0],[0.25,0,0],[0.5,0,0],[0.75,0,0],[1,0,0],[0,1,0],[0.25,1,0],[0.5,1,0],[0.75,1,0],[1,1,0],[0,0.25,0],[0,0.5,0],[0,0.75,0],[1,0.25,0],[1,0.5,0],[1,0.75,0]];outlineConnect=0;fontColor=#232F3E;gradientColor=#F78E04;gradientDirection=north;fillColor=#D05C17;strokeColor=#ffffff;dashed=0;verticalLabelPosition=bottom;verticalAlign=top;align=center;html=1;fontSize=12;fontStyle=0;aspect=fixed;shape=mxgraph.aws4.resourceIcon;resIcon=mxgraph.aws4.red_hat_openshift;" parent="1" vertex="1">
                    <mxGeometry x="208" y="718" width="38" height="38" as="geometry"/>
                </mxCell>
                <mxCell id="RJmhnvJt7O8vMK1CdAbt-198" value="&lt;font style=&quot;font-size: 10px&quot;&gt;ROSA&lt;/font&gt;" style="sketch=0;points=[[0,0,0],[0.25,0,0],[0.5,0,0],[0.75,0,0],[1,0,0],[0,1,0],[0.25,1,0],[0.5,1,0],[0.75,1,0],[1,1,0],[0,0.25,0],[0,0.5,0],[0,0.75,0],[1,0.25,0],[1,0.5,0],[1,0.75,0]];outlineConnect=0;fontColor=#232F3E;gradientColor=#F78E04;gradientDirection=north;fillColor=#D05C17;strokeColor=#ffffff;dashed=0;verticalLabelPosition=bottom;verticalAlign=top;align=center;html=1;fontSize=12;fontStyle=1;aspect=fixed;shape=mxgraph.aws4.resourceIcon;resIcon=mxgraph.aws4.red_hat_openshift;" parent="1" vertex="1">
                    <mxGeometry x="608" y="723" width="38" height="38" as="geometry"/>
                </mxCell>
                <mxCell id="RJmhnvJt7O8vMK1CdAbt-206" value="" style="edgeStyle=orthogonalEdgeStyle;html=1;endArrow=open;elbow=vertical;startArrow=open;startFill=0;endFill=0;strokeColor=#545B64;rounded=0;fontSize=10;" parent="1" source="RJmhnvJt7O8vMK1CdAbt-202" edge="1">
                    <mxGeometry width="100" relative="1" as="geometry">
                        <mxPoint x="-19" y="681" as="sourcePoint"/>
                        <mxPoint x="81" y="681" as="targetPoint"/>
                        <Array as="points">
                            <mxPoint x="30" y="681"/>
                        </Array>
                    </mxGeometry>
                </mxCell>
                <mxCell id="RJmhnvJt7O8vMK1CdAbt-207" value="" style="edgeStyle=orthogonalEdgeStyle;html=1;endArrow=open;elbow=vertical;startArrow=open;startFill=0;endFill=0;strokeColor=#545B64;rounded=0;fontSize=10;" parent="1" source="RJmhnvJt7O8vMK1CdAbt-204" edge="1">
                    <mxGeometry width="100" relative="1" as="geometry">
                        <mxPoint x="-20" y="909" as="sourcePoint"/>
                        <mxPoint x="80" y="909" as="targetPoint"/>
                        <Array as="points">
                            <mxPoint x="29" y="909"/>
                        </Array>
                    </mxGeometry>
                </mxCell>
                <mxCell id="RJmhnvJt7O8vMK1CdAbt-208" value="" style="edgeStyle=orthogonalEdgeStyle;html=1;endArrow=open;elbow=vertical;startArrow=open;startFill=0;endFill=0;strokeColor=#545B64;rounded=0;fontSize=10;exitX=0.62;exitY=1.01;exitDx=0;exitDy=0;exitPerimeter=0;" parent="1" edge="1">
                    <mxGeometry width="100" relative="1" as="geometry">
                        <mxPoint x="33.5598963683467" y="1024.3799999999999" as="sourcePoint"/>
                        <mxPoint x="79" y="1118" as="targetPoint"/>
                        <Array as="points">
                            <mxPoint x="34" y="1118"/>
                        </Array>
                    </mxGeometry>
                </mxCell>
                <mxCell id="RJmhnvJt7O8vMK1CdAbt-211" style="edgeStyle=orthogonalEdgeStyle;rounded=0;orthogonalLoop=1;jettySize=auto;html=1;exitX=1;exitY=0.5;exitDx=0;exitDy=0;fontSize=10;entryX=0;entryY=0.5;entryDx=0;entryDy=0;entryPerimeter=0;" parent="1" source="RJmhnvJt7O8vMK1CdAbt-210" target="RJmhnvJt7O8vMK1CdAbt-64" edge="1">
                    <mxGeometry relative="1" as="geometry">
                        <mxPoint x="-100" y="100" as="targetPoint"/>
                    </mxGeometry>
                </mxCell>
                <mxCell id="RJmhnvJt7O8vMK1CdAbt-210" value="&lt;font style=&quot;font-size: 10px&quot;&gt;Employees connecting Remotely&lt;/font&gt;" style="points=[[0,0],[0.25,0],[0.5,0],[0.75,0],[1,0],[1,0.25],[1,0.5],[1,0.75],[1,1],[0.75,1],[0.5,1],[0.25,1],[0,1],[0,0.75],[0,0.5],[0,0.25]];outlineConnect=0;gradientColor=none;html=1;whiteSpace=wrap;fontSize=12;fontStyle=0;container=1;pointerEvents=0;collapsible=0;recursiveResize=0;shape=mxgraph.aws4.group;grIcon=mxgraph.aws4.group_on_premise;strokeColor=#5A6C86;fillColor=none;verticalAlign=top;align=left;spacingLeft=30;fontColor=#5A6C86;dashed=0;" parent="1" vertex="1">
                    <mxGeometry x="-210" y="64" width="130" height="180" as="geometry"/>
                </mxCell>
                <mxCell id="RJmhnvJt7O8vMK1CdAbt-214" value="" style="sketch=0;outlineConnect=0;fontColor=#232F3E;gradientColor=none;fillColor=#232F3D;strokeColor=none;dashed=0;verticalLabelPosition=bottom;verticalAlign=top;align=center;html=1;fontSize=12;fontStyle=0;aspect=fixed;pointerEvents=1;shape=mxgraph.aws4.users;" parent="RJmhnvJt7O8vMK1CdAbt-210" vertex="1">
                    <mxGeometry x="20" y="66" width="44" height="44" as="geometry"/>
                </mxCell>
                <mxCell id="RJmhnvJt7O8vMK1CdAbt-217" value="" style="sketch=0;outlineConnect=0;fontColor=#232F3E;gradientColor=none;fillColor=#232F3D;strokeColor=none;dashed=0;verticalLabelPosition=bottom;verticalAlign=top;align=center;html=1;fontSize=12;fontStyle=0;aspect=fixed;pointerEvents=1;shape=mxgraph.aws4.client;" parent="RJmhnvJt7O8vMK1CdAbt-210" vertex="1">
                    <mxGeometry x="20" y="126" width="40" height="38.97" as="geometry"/>
                </mxCell>
                <mxCell id="RJmhnvJt7O8vMK1CdAbt-218" value="&lt;font style=&quot;font-size: 10px&quot;&gt;VPN Client&lt;/font&gt;" style="sketch=0;outlineConnect=0;fontColor=#232F3E;gradientColor=none;fillColor=#4D27AA;strokeColor=none;dashed=0;verticalLabelPosition=bottom;verticalAlign=top;align=center;html=1;fontSize=12;fontStyle=0;aspect=fixed;pointerEvents=1;shape=mxgraph.aws4.vpn_connection;" parent="RJmhnvJt7O8vMK1CdAbt-210" vertex="1">
                    <mxGeometry x="50" y="96" width="30" height="33.43" as="geometry"/>
                </mxCell>
                <mxCell id="RJmhnvJt7O8vMK1CdAbt-215" value="Internet" style="sketch=0;outlineConnect=0;fontColor=#232F3E;gradientColor=none;fillColor=#232F3D;strokeColor=none;dashed=0;verticalLabelPosition=bottom;verticalAlign=top;align=center;html=1;fontSize=12;fontStyle=0;aspect=fixed;pointerEvents=1;shape=mxgraph.aws4.internet_alt1;" parent="1" vertex="1">
                    <mxGeometry x="-110" y="124.31" width="58" height="35.69" as="geometry"/>
                </mxCell>
                <mxCell id="RJmhnvJt7O8vMK1CdAbt-216" style="edgeStyle=orthogonalEdgeStyle;rounded=0;orthogonalLoop=1;jettySize=auto;html=1;exitX=0.5;exitY=1;exitDx=0;exitDy=0;fontSize=10;" parent="1" source="RJmhnvJt7O8vMK1CdAbt-210" target="RJmhnvJt7O8vMK1CdAbt-210" edge="1">
                    <mxGeometry relative="1" as="geometry"/>
                </mxCell>
                <mxCell id="RJmhnvJt7O8vMK1CdAbt-209" value="Corporate data center" style="points=[[0,0],[0.25,0],[0.5,0],[0.75,0],[1,0],[1,0.25],[1,0.5],[1,0.75],[1,1],[0.75,1],[0.5,1],[0.25,1],[0,1],[0,0.75],[0,0.5],[0,0.25]];outlineConnect=0;gradientColor=none;html=1;whiteSpace=wrap;fontSize=12;fontStyle=0;container=1;pointerEvents=0;collapsible=0;recursiveResize=0;shape=mxgraph.aws4.group;grIcon=mxgraph.aws4.group_corporate_data_center;strokeColor=#5A6C86;fillColor=none;verticalAlign=top;align=left;spacingLeft=30;fontColor=#5A6C86;dashed=0;" parent="1" vertex="1">
                    <mxGeometry x="1050" y="100" width="130" height="220" as="geometry"/>
                </mxCell>
                <mxCell id="RJmhnvJt7O8vMK1CdAbt-235" value="&lt;font style=&quot;font-size: 10px&quot;&gt;Users&lt;/font&gt;" style="sketch=0;outlineConnect=0;fontColor=#232F3E;gradientColor=none;fillColor=#232F3D;strokeColor=none;dashed=0;verticalLabelPosition=bottom;verticalAlign=top;align=center;html=1;fontSize=12;fontStyle=0;aspect=fixed;pointerEvents=1;shape=mxgraph.aws4.users;" parent="RJmhnvJt7O8vMK1CdAbt-209" vertex="1">
                    <mxGeometry x="41" y="60" width="48" height="48" as="geometry"/>
                </mxCell>
                <mxCell id="RJmhnvJt7O8vMK1CdAbt-222" value="Customers" style="sketch=0;outlineConnect=0;fontColor=#232F3E;gradientColor=none;fillColor=#232F3D;strokeColor=none;dashed=0;verticalLabelPosition=bottom;verticalAlign=top;align=center;html=1;fontSize=12;fontStyle=0;aspect=fixed;pointerEvents=1;shape=mxgraph.aws4.users;" parent="1" vertex="1">
                    <mxGeometry x="-210" y="780" width="50" height="50" as="geometry"/>
                </mxCell>
                <mxCell id="RJmhnvJt7O8vMK1CdAbt-233" style="edgeStyle=orthogonalEdgeStyle;rounded=0;orthogonalLoop=1;jettySize=auto;html=1;fontSize=10;" parent="1" source="RJmhnvJt7O8vMK1CdAbt-223" target="RJmhnvJt7O8vMK1CdAbt-226" edge="1">
                    <mxGeometry relative="1" as="geometry">
                        <mxPoint x="-160" y="1160" as="targetPoint"/>
                        <Array as="points">
                            <mxPoint x="-186" y="1154"/>
                        </Array>
                    </mxGeometry>
                </mxCell>
                <mxCell id="RJmhnvJt7O8vMK1CdAbt-223" value="&lt;font style=&quot;font-size: 10px&quot;&gt;Internet&lt;/font&gt;" style="sketch=0;outlineConnect=0;fontColor=#232F3E;gradientColor=none;fillColor=#232F3D;strokeColor=none;dashed=0;verticalLabelPosition=bottom;verticalAlign=top;align=center;html=1;fontSize=12;fontStyle=0;aspect=fixed;pointerEvents=1;shape=mxgraph.aws4.internet;" parent="1" vertex="1">
                    <mxGeometry x="-230" y="947" width="88" height="54.15" as="geometry"/>
                </mxCell>
                <mxCell id="RJmhnvJt7O8vMK1CdAbt-240" style="edgeStyle=orthogonalEdgeStyle;rounded=0;orthogonalLoop=1;jettySize=auto;html=1;entryX=1;entryY=0.5;entryDx=0;entryDy=0;entryPerimeter=0;fontSize=10;" parent="1" source="RJmhnvJt7O8vMK1CdAbt-236" target="RJmhnvJt7O8vMK1CdAbt-237" edge="1">
                    <mxGeometry relative="1" as="geometry"/>
                </mxCell>
                <mxCell id="RJmhnvJt7O8vMK1CdAbt-236" value="&lt;font style=&quot;font-size: 10px&quot;&gt;Firewall&lt;/font&gt;" style="sketch=0;outlineConnect=0;fontColor=#232F3E;gradientColor=none;fillColor=#FF3333;strokeColor=none;dashed=0;verticalLabelPosition=bottom;verticalAlign=top;align=center;html=1;fontSize=12;fontStyle=0;aspect=fixed;pointerEvents=1;shape=mxgraph.aws4.generic_firewall;" parent="1" vertex="1">
                    <mxGeometry x="1030" y="189.69" width="48" height="40.62" as="geometry"/>
                </mxCell>
                <mxCell id="RJmhnvJt7O8vMK1CdAbt-245" style="edgeStyle=orthogonalEdgeStyle;rounded=0;orthogonalLoop=1;jettySize=auto;html=1;fontSize=10;" parent="1" source="RJmhnvJt7O8vMK1CdAbt-243" edge="1">
                    <mxGeometry relative="1" as="geometry">
                        <mxPoint x="137" y="280" as="targetPoint"/>
                    </mxGeometry>
                </mxCell>
                <mxCell id="RJmhnvJt7O8vMK1CdAbt-249" style="edgeStyle=orthogonalEdgeStyle;rounded=0;orthogonalLoop=1;jettySize=auto;html=1;entryX=0.129;entryY=0.797;entryDx=0;entryDy=0;entryPerimeter=0;fontSize=10;" parent="1" source="RJmhnvJt7O8vMK1CdAbt-226" target="RJmhnvJt7O8vMK1CdAbt-132" edge="1">
                    <mxGeometry relative="1" as="geometry"/>
                </mxCell>
                <mxCell id="RJmhnvJt7O8vMK1CdAbt-252" style="edgeStyle=orthogonalEdgeStyle;rounded=0;orthogonalLoop=1;jettySize=auto;html=1;fontSize=10;" parent="1" source="RJmhnvJt7O8vMK1CdAbt-150" edge="1">
                    <mxGeometry relative="1" as="geometry">
                        <mxPoint x="100" y="1247" as="targetPoint"/>
                    </mxGeometry>
                </mxCell>
                <mxCell id="RJmhnvJt7O8vMK1CdAbt-262" style="edgeStyle=orthogonalEdgeStyle;rounded=0;orthogonalLoop=1;jettySize=auto;html=1;entryX=0;entryY=0.5;entryDx=0;entryDy=0;fontSize=10;" parent="1" source="RJmhnvJt7O8vMK1CdAbt-171" target="RJmhnvJt7O8vMK1CdAbt-170" edge="1">
                    <mxGeometry relative="1" as="geometry"/>
                </mxCell>
            </root>
        </mxGraphModel>
    </diagram>
</mxfile>